<?xml version="1.0" encoding="utf-8"?>
<!-- Generator: Adobe Illustrator 23.1.0, SVG Export Plug-In . SVG Version: 6.00 Build 0)  -->
<svg version="1.1" id="Calque_1" xmlns="http://www.w3.org/2000/svg" xmlns:xlink="http://www.w3.org/1999/xlink" x="0px" y="0px"
	 viewBox="0 0 2444.7 2249.7" style="enable-background:new 0 0 2444.7 2249.7;" xml:space="preserve">
<style type="text/css">
	.st0{fill:#D36A46;}
	.st1{fill:#178181;}
	.st2{fill:#2AA846;}
	.st3{opacity:0.367;fill:#414141;enable-background:new    ;}
	.st4{fill:none;}
	.st5{fill:#C79FFF;}
	.st6{fill:#945742;}
	.st7{fill:#866667;}
	.st8{fill:#3E4347;}
	.st9{fill:#DAE3EA;}
	.st10{fill:#86663E;}
</style>
<g>
	<g>
		<g>
			<path class="st0" d="M2319.4,1137c0,2.2,0,4.3-0.1,6.5c0,1.6-0.1,3.2-0.1,4.8c-0.1,2.9-0.1,5.8-0.2,8.7c-0.1,2.7-0.2,5.5-0.3,8.2
				c-0.1,1.7-0.1,3.3-0.2,5c-0.1,3.6-0.3,7.3-0.5,10.9c0,0.7-0.1,1.4-0.1,2.1c-1.6,32-4.6,63.6-8.9,94.9
				c7.1,68.2-5.5,113.4-29,142.6c-9.2,33.8-19.9,66.9-32.1,99.4c-0.4,1-0.7,1.9-1.1,2.9c-0.9,2.3-1.8,4.6-2.6,7
				c-1.4,3.6-2.8,7.1-4.2,10.7c-0.2,0.5-0.4,1-0.6,1.4c-1.2,3.1-2.4,6.1-3.7,9.1c-0.2,0.6-0.5,1.2-0.7,1.8c-1.4,3.5-2.9,7-4.4,10.5
				c-0.2,0.5-0.5,1.1-0.7,1.6c-3.4,7.9-6.8,15.8-10.4,23.6c-0.3,0.7-0.6,1.4-0.9,2c-1.7,3.6-3.3,7.3-5,10.9
				c-0.1,0.3-0.2,0.5-0.3,0.8c-1.9,4-3.7,7.9-5.7,11.9c-0.2,0.4-0.4,0.8-0.6,1.2c-1.7,3.5-3.4,6.9-5.1,10.3c-0.3,0.7-0.7,1.4-1,2.1
				c-3.8,7.7-7.8,15.3-11.8,22.9c-0.3,0.7-0.7,1.3-1,2c-1.7,3.3-3.5,6.6-5.3,9.8c-0.3,0.6-0.6,1.2-1,1.8c-2.1,3.8-4.2,7.7-6.4,11.5
				c-0.1,0.1-0.1,0.2-0.2,0.3c-2,3.6-4.1,7.2-6.1,10.8c-0.4,0.8-0.9,1.5-1.3,2.3c-1.9,3.3-3.9,6.7-5.9,10c-0.2,0.4-0.4,0.7-0.6,1.1
				c-2.2,3.7-4.5,7.5-6.7,11.2c-0.3,0.6-0.7,1.1-1,1.7c-1.9,3.1-3.9,6.2-5.8,9.3c-0.5,0.8-1,1.6-1.5,2.4c-1.9,2.9-3.7,5.9-5.6,8.8
				c116.7-1,244.3-30.1,290.1-142.3C2477.9,1448.7,2396,1265.3,2319.4,1137z"/>
		</g>
		<path class="st1" d="M2116,1770.4c-0.2,0.4-0.5,0.7-0.8,1.1C2115.5,1771.1,2115.7,1770.7,2116,1770.4z"/>
		<path class="st1" d="M2100.1,1792.3c-0.4,0.5-0.7,1-1.1,1.5C2099.4,1793.4,2099.8,1792.8,2100.1,1792.3z"/>
		<path class="st1" d="M2132.3,1746.4c-0.5,0.8-1,1.6-1.6,2.4C2131.3,1748,2131.8,1747.2,2132.3,1746.4z"/>
		<path class="st1" d="M2091.3,1804.2c-0.6,0.7-1.1,1.5-1.7,2.2C2090.2,1805.6,2090.7,1804.9,2091.3,1804.2z"/>
		<path class="st1" d="M2108.5,1780.8c-0.6,0.9-1.3,1.8-1.9,2.6C2107.3,1782.6,2107.9,1781.7,2108.5,1780.8z"/>
		<path class="st1" d="M2124.8,1757.6c-0.5,0.7-1,1.4-1.5,2.1C2123.8,1759,2124.3,1758.3,2124.8,1757.6z"/>
		<path class="st1" d="M2234.8,696c0,0.1,0.1,0.2,0.1,0.3c-0.6-1.6-1.3-3.1-1.9-4.7c0.1,0.2,0.2,0.5,0.3,0.7
			C2233.8,693.6,2234.3,694.8,2234.8,696z"/>
		<path class="st1" d="M1648.9,95.5c1.6,0.7,3.1,1.4,4.7,2.1c-3-1.3-6-2.7-9.1-4c1.3,0.6,2.7,1.2,4,1.8
			C1648.6,95.4,1648.7,95.4,1648.9,95.5z"/>
		<path class="st1" d="M1945.4,287.2c-0.3-0.2-0.5-0.5-0.8-0.7c0.2,0.1,0.3,0.3,0.5,0.4C1945.2,287,1945.3,287.1,1945.4,287.2z"/>
		<path class="st1" d="M1933.6,276.8c0.1,0.1,0.2,0.2,0.3,0.3c-2.2-1.9-4.3-3.8-6.5-5.6c2,1.7,4,3.5,6,5.2
			C1933.6,276.8,1933.6,276.8,1933.6,276.8z"/>
		<path class="st1" d="M1943.5,285.5c-1.5-1.4-3.1-2.8-4.6-4.1c1.1,1,2.2,2,3.4,3C1942.6,284.8,1943.1,285.1,1943.5,285.5z"/>
		<path class="st1" d="M1626.6,85.9c-0.4-0.2-0.8-0.3-1.1-0.5c0.3,0.1,0.5,0.2,0.8,0.3C1626.3,85.8,1626.4,85.9,1626.6,85.9z"/>
		<path class="st1" d="M1637.8,90.7c0.7,0.3,1.5,0.6,2.2,0.9c-2.9-1.3-5.9-2.5-8.8-3.8c0.9,0.4,1.9,0.8,2.8,1.2
			C1635.3,89.6,1636.6,90.2,1637.8,90.7z"/>
		<path class="st1" d="M2015.9,1893.4c0.5-0.6,1.1-1.2,1.6-1.8c-0.4,0.5-0.9,0.9-1.3,1.4C2016.2,1893.1,2016,1893.2,2015.9,1893.4z"
			/>
		<path class="st1" d="M2319.3,1143.5c0-2.2,0.1-4.3,0.1-6.5c0.2-16.8,0-33.5-0.6-50.2c0.3,9.4,0.5,18.9,0.6,28.4
			C2319.5,1124.6,2319.4,1134.1,2319.3,1143.5z"/>
		<path class="st1" d="M2006.5,1903.3c0.6-0.7,1.3-1.3,1.9-2c-0.2,0.2-0.5,0.5-0.7,0.7C2007.3,1902.5,2006.9,1902.9,2006.5,1903.3z"
			/>
		<path class="st1" d="M1184.9,0c4.7,0,9.4,0,14.1,0c-19.4-0.1-38.8,0.4-58.3,1.3c14.8-0.7,29.5-1.1,44.3-1.2
			C1185,0,1184.9,0,1184.9,0z"/>
		<path class="st1" d="M1623,84.5c-1.7-0.7-3.5-1.4-5.2-2.1c0.3,0.1,0.5,0.2,0.8,0.3C1620.1,83.3,1621.5,83.9,1623,84.5z"/>
		<path class="st1" d="M2166.3,557.7c-40.5-69.2-89-135.1-145.5-196.1c55.2,59.7,104,125.5,145.3,196.1
			C2166.3,557.7,2166.3,557.7,2166.3,557.7z"/>
		<path class="st1" d="M2227.6,679c0.3,0.7,0.6,1.4,0.9,2.2c-0.9-2.2-1.9-4.4-2.9-6.6c0.3,0.7,0.6,1.4,0.9,2.1
			C2227,677.5,2227.3,678.2,2227.6,679z"/>
		<path class="st1" d="M1983.3,322.8c0,0-0.1-0.1-0.1-0.1h0C1983.2,322.7,1983.2,322.7,1983.3,322.8z"/>
		<path class="st1" d="M2231.2,687.4c-0.2-0.4-0.3-0.8-0.5-1.2c0.1,0.3,0.2,0.5,0.3,0.8C2231.1,687.1,2231.1,687.2,2231.2,687.4z"/>
		<path class="st1" d="M2083.3,1814.5c-0.7,0.9-1.4,1.8-2.1,2.6C2081.9,1816.3,2082.6,1815.4,2083.3,1814.5z"/>
		<path class="st1" d="M1956.8,297.6c-0.2-0.2-0.4-0.4-0.7-0.6c0.1,0.1,0.3,0.2,0.4,0.4C1956.6,297.5,1956.7,297.6,1956.8,297.6z"/>
		<polygon class="st1" points="1983.1,322.6 1983.1,322.6 1983.1,322.6 		"/>
		<path class="st1" d="M1953.3,294.4c-1.1-1-2.1-2-3.2-2.9c0.6,0.6,1.3,1.2,1.9,1.8C1952.4,293.6,1952.9,294,1953.3,294.4z"/>
		<path class="st1" d="M1963.2,303.5c-0.7-0.6-1.3-1.2-2-1.8c0.3,0.3,0.7,0.6,1,0.9C1962.5,302.9,1962.8,303.2,1963.2,303.5z"/>
		<path class="st1" d="M1973.1,312.9c-0.3-0.3-0.6-0.6-0.9-0.9c0.1,0.1,0.3,0.3,0.4,0.4C1972.8,312.6,1973,312.8,1973.1,312.9z"/>
		<path class="st1" d="M1968.6,308.6c-0.1-0.1-0.3-0.3-0.4-0.4c0.1,0.1,0.2,0.1,0.2,0.2C1968.5,308.5,1968.5,308.6,1968.6,308.6z"/>
		<path class="st1" d="M1986.9,1923.2c-1.5,1.5-3.1,3-4.6,4.5C1983.8,1926.3,1985.4,1924.8,1986.9,1923.2z"/>
		<path class="st1" d="M1670.8,105.5c4.1,1.9,8.1,3.8,12.2,5.8C1679,109.3,1674.9,107.4,1670.8,105.5z"/>
		<path class="st1" d="M1683.9,111.6c4.5,2.2,8.9,4.3,13.3,6.6C1692.8,116,1688.3,113.8,1683.9,111.6z"/>
		<path class="st1" d="M1657.7,99.4c3.3,1.5,6.5,3,9.8,4.5C1664.3,102.4,1661,100.9,1657.7,99.4z"/>
		<path class="st1" d="M1221.2,0.3c1.6,0,3.3,0.1,4.9,0.1C1224.5,0.4,1222.9,0.4,1221.2,0.3z"/>
		<path class="st1" d="M1697.7,118.4c4.2,2.1,8.3,4.2,12.4,6.3C1706,122.6,1701.8,120.5,1697.7,118.4z"/>
		<path class="st1" d="M1237.2,0.8c0.7,0,1.5,0.1,2.2,0.1C1238.6,0.9,1237.9,0.8,1237.2,0.8z"/>
		<path class="st1" d="M1607.6,78.3c0.5,0.2,1.1,0.4,1.6,0.6C1608.7,78.7,1608.2,78.5,1607.6,78.3z"/>
		<path class="st1" d="M1753.4,148.3c2.5,1.5,5.1,2.9,7.6,4.4C1758.5,151.2,1755.9,149.8,1753.4,148.3z"/>
		<path class="st1" d="M1713.6,126.6c3.1,1.6,6.2,3.2,9.3,4.9C1719.8,129.8,1716.7,128.2,1713.6,126.6z"/>
		<path class="st1" d="M1766.1,155.7c2.5,1.5,5,3,7.5,4.5C1771.1,158.7,1768.6,157.2,1766.1,155.7z"/>
		<path class="st1" d="M1727.3,133.8c2.8,1.5,5.6,3,8.3,4.5C1732.9,136.8,1730.1,135.3,1727.3,133.8z"/>
		<path class="st1" d="M1740.5,141c2.6,1.5,5.2,2.9,7.9,4.4C1745.7,144,1743.1,142.5,1740.5,141z"/>
		<path class="st1" d="M1204.1,0.1c2.9,0,5.8,0,8.7,0.1C1209.8,0.1,1206.9,0.1,1204.1,0.1z"/>
		<path class="st1" d="M1957.8,1951.1c-92.1,85.1-198.4,155-315.1,205.7C1755.9,2107.8,1862.6,2039.2,1957.8,1951.1z"/>
		<path class="st1" d="M2317.6,1060c0.1,1.8,0.2,3.7,0.3,5.5C2317.8,1063.7,2317.7,1061.9,2317.6,1060z"/>
		<path class="st1" d="M1258.7,2247.8c-0.8,0-1.6,0.1-2.3,0.1C1257.2,2247.9,1257.9,2247.9,1258.7,2247.8z"/>
		<path class="st1" d="M1627.3,2163.4c-0.8,0.3-1.6,0.6-2.3,1C1625.8,2164,1626.5,2163.7,1627.3,2163.4z"/>
		<path class="st1" d="M1977.2,1932.8c-2.2,2.2-4.5,4.3-6.8,6.5C1972.6,1937.2,1974.9,1935,1977.2,1932.8z"/>
		<path class="st1" d="M2318.3,1073.3c0.1,3,0.3,6.1,0.4,9.1C2318.5,1079.3,2318.4,1076.3,2318.3,1073.3z"/>
		<path class="st1" d="M1641,2157.6c-2.4,1-4.7,2-7.1,3C1636.2,2159.6,1638.6,2158.6,1641,2157.6z"/>
		<path class="st1" d="M1126.4,2.1c4.6-0.3,9.1-0.5,13.7-0.7C1135.5,1.6,1131,1.8,1126.4,2.1z"/>
		<path class="st1" d="M1778.7,163.3c2.5,1.5,5,3,7.4,4.6C1783.7,166.3,1781.2,164.8,1778.7,163.3z"/>
		<path class="st1" d="M1245.5,2248.5c-1.7,0.1-3.4,0.1-5.1,0.2C1242.2,2248.6,1243.8,2248.6,1245.5,2248.5z"/>
		<path class="st1" d="M1232.1,2249c-2.9,0.1-5.9,0.2-8.8,0.2C1226.2,2249.2,1229.1,2249.1,1232.1,2249z"/>
		<path class="st1" d="M1112,3c4.4-0.3,8.7-0.6,13.1-0.9C1120.8,2.4,1116.4,2.7,1112,3z"/>
		<path class="st1" d="M1967.4,1942.1c-2.8,2.7-5.6,5.3-8.5,7.9C1961.8,1947.4,1964.6,1944.8,1967.4,1942.1z"/>
		<path class="st1" d="M1904.4,252.2c2.2,1.8,4.4,3.6,6.6,5.4C1908.8,255.8,1906.6,254,1904.4,252.2z"/>
		<path class="st1" d="M2203.6,627c1,2.1,2,4.1,3,6.2C2205.6,631.2,2204.6,629.1,2203.6,627z"/>
		<path class="st1" d="M1892.7,242.8c2.2,1.8,4.5,3.6,6.7,5.4C1897.2,246.3,1895,244.5,1892.7,242.8z"/>
		<path class="st1" d="M2197.7,615.2c1,2,2.1,4.1,3.1,6.1C2199.8,619.3,2198.7,617.3,2197.7,615.2z"/>
		<path class="st1" d="M2316.8,1047c0.1,0.8,0.1,1.7,0.2,2.5C2316.9,1048.7,2316.8,1047.9,2316.8,1047z"/>
		<path class="st1" d="M1880.8,233.4c2.3,1.8,4.7,3.6,7,5.4C1885.4,237,1883.1,235.2,1880.8,233.4z"/>
		<path class="st1" d="M2191.7,603.5c1.1,2,2.1,4.1,3.1,6.1C2193.8,607.5,2192.7,605.5,2191.7,603.5z"/>
		<path class="st1" d="M2185.4,591.8c1.1,2,2.1,4,3.2,6C2187.6,595.8,2186.5,593.8,2185.4,591.8z"/>
		<path class="st1" d="M2179.1,580.1c1.1,2,2.2,4,3.3,6C2181.3,584.1,2180.2,582.1,2179.1,580.1z"/>
		<path class="st1" d="M2011.8,351.9c2.8,2.9,5.5,5.9,8.3,8.9C2017.4,357.8,2014.6,354.9,2011.8,351.9z"/>
		<path class="st1" d="M2002.5,342.2c2.3,2.4,4.6,4.8,6.9,7.2C2007.2,347,2004.9,344.6,2002.5,342.2z"/>
		<path class="st1" d="M1993,332.5c1.7,1.7,3.4,3.5,5.1,5.2C1996.4,335.9,1994.7,334.2,1993,332.5z"/>
		<path class="st1" d="M1916,261.8c2.2,1.8,4.3,3.6,6.5,5.5C1920.4,265.4,1918.2,263.6,1916,261.8z"/>
		<path class="st1" d="M1828.1,195.1c3.6,2.4,7.1,4.9,10.7,7.4C1835.2,200,1831.7,197.6,1828.1,195.1z"/>
		<path class="st1" d="M2220.4,662.7c1,2.1,1.9,4.3,2.9,6.4C2222.3,667,2221.4,664.8,2220.4,662.7z"/>
		<path class="st1" d="M1815.9,186.9c2.8,1.8,5.5,3.7,8.3,5.6C1821.4,190.6,1818.6,188.7,1815.9,186.9z"/>
		<path class="st1" d="M1803.6,178.9c2.6,1.7,5.1,3.3,7.7,5C1808.7,182.2,1806.2,180.5,1803.6,178.9z"/>
		<path class="st1" d="M2169.3,562.8c2.2,3.9,4.5,7.8,6.7,11.7C2173.7,570.6,2171.5,566.7,2169.3,562.8z"/>
		<path class="st1" d="M1868.5,224.1c2.5,1.9,5,3.7,7.5,5.6C1873.5,227.8,1871,226,1868.5,224.1z"/>
		<path class="st1" d="M2065.1,1837.3c-0.7,0.9-1.5,1.8-2.2,2.7C2063.7,1839,2064.4,1838.1,2065.1,1837.3z"/>
		<path class="st1" d="M2209.4,638.9c1,2.1,2,4.2,3,6.2C2211.4,643,2210.4,641,2209.4,638.9z"/>
		<path class="st1" d="M1840.2,203.5c4,2.8,8.1,5.7,12.1,8.6C1848.3,209.2,1844.2,206.3,1840.2,203.5z"/>
		<path class="st1" d="M2215,650.8c1,2.1,2,4.2,2.9,6.3C2216.9,655,2216,652.9,2215,650.8z"/>
		<path class="st1" d="M1855.4,214.4c2.9,2.1,5.9,4.3,8.8,6.4C1861.3,218.7,1858.3,216.5,1855.4,214.4z"/>
		<path class="st1" d="M1791.2,171c2.5,1.6,5,3.1,7.5,4.7C1796.2,174.1,1793.7,172.5,1791.2,171z"/>
		<path class="st1" d="M2037.5,1869.6c-0.8,0.9-1.6,1.9-2.5,2.8C2035.9,1871.5,2036.7,1870.6,2037.5,1869.6z"/>
		<path class="st1" d="M2046.1,1859.9c-0.5,0.5-0.9,1.1-1.4,1.6C2045.2,1860.9,2045.6,1860.4,2046.1,1859.9z"/>
		<path class="st1" d="M2056.5,1847.7c-0.7,0.8-1.3,1.6-2,2.4C2055.1,1849.3,2055.8,1848.5,2056.5,1847.7z"/>
		<path class="st1" d="M2027.9,1880.4c-0.5,0.6-1.1,1.2-1.6,1.7C2026.8,1881.6,2027.4,1881,2027.9,1880.4z"/>
		<path class="st1" d="M2207.7,1614.3c-0.2,0.4-0.4,0.8-0.6,1.2C2207.3,1615.1,2207.5,1614.7,2207.7,1614.3z"/>
		<path class="st1" d="M2202,1625.8c-0.3,0.7-0.7,1.4-1,2.1C2201.3,1627.2,2201.7,1626.5,2202,1625.8z"/>
		<path class="st1" d="M2318,1181.1c0,0.7-0.1,1.4-0.1,2.1C2318,1182.5,2318,1181.8,2318,1181.1z"/>
		<path class="st1" d="M2318.7,1165.2c-0.1,1.7-0.1,3.3-0.2,5C2318.6,1168.5,2318.6,1166.9,2318.7,1165.2z"/>
		<path class="st1" d="M2219.7,1588.7c-0.3,0.7-0.6,1.4-0.9,2C2219,1590.1,2219.3,1589.4,2219.7,1588.7z"/>
		<path class="st1" d="M2213.7,1601.6c-0.1,0.3-0.2,0.5-0.3,0.8C2213.5,1602.1,2213.6,1601.9,2213.7,1601.6z"/>
		<path class="st1" d="M2147.8,1722.5c-0.5,0.8-1,1.6-1.5,2.4C2146.8,1724.1,2147.3,1723.3,2147.8,1722.5z"/>
		<path class="st1" d="M2230.7,1563.5c-0.2,0.5-0.5,1.1-0.7,1.6C2230.3,1564.5,2230.5,1564,2230.7,1563.5z"/>
		<path class="st1" d="M2235.8,1551.2c-0.2,0.6-0.5,1.2-0.7,1.8C2235.3,1552.3,2235.6,1551.8,2235.8,1551.2z"/>
		<path class="st1" d="M2162,1699.2c-0.2,0.4-0.4,0.7-0.6,1.1C2161.6,1699.9,2161.8,1699.6,2162,1699.2z"/>
		<path class="st1" d="M2169.2,1686.9c-0.4,0.8-0.9,1.5-1.3,2.3C2168.3,1688.5,2168.8,1687.7,2169.2,1686.9z"/>
		<path class="st1" d="M2182.9,1662.6c-0.3,0.6-0.6,1.2-1,1.8C2182.2,1663.8,2182.5,1663.2,2182.9,1662.6z"/>
		<path class="st1" d="M2175.5,1675.9c-0.1,0.1-0.1,0.2-0.2,0.3C2175.4,1676.1,2175.5,1676,2175.5,1675.9z"/>
		<path class="st1" d="M2154.6,1711.5c-0.3,0.6-0.7,1.1-1,1.7C2153.9,1712.6,2154.3,1712,2154.6,1711.5z"/>
		<path class="st1" d="M2189.2,1650.8c-0.3,0.7-0.7,1.3-1,2C2188.5,1652.2,2188.8,1651.5,2189.2,1650.8z"/>
		<path class="st1" d="M2319.2,1148.3c-0.1,2.9-0.1,5.8-0.2,8.7C2319.1,1154.1,2319.1,1151.2,2319.2,1148.3z"/>
		<path class="st2" d="M2005.4,1904.5c-2.8,2.9-5.5,5.7-8.3,8.6C1999.9,1910.2,2002.6,1907.4,2005.4,1904.5z"/>
		<path class="st2" d="M2248,1520.1c-0.4,1-0.7,1.9-1.1,2.9C2247.3,1522,2247.7,1521,2248,1520.1z"/>
		<path class="st2" d="M2007.7,1902c0.2-0.2,0.5-0.5,0.7-0.7c2-2.1,4-4.2,6-6.3C2012.2,1897.4,2010,1899.7,2007.7,1902z"/>
		<path class="st2" d="M2240.1,1540.6c1.4-3.6,2.8-7.1,4.2-10.7C2242.9,1533.4,2241.5,1537,2240.1,1540.6z"/>
		<path class="st2" d="M2147.8,1722.5c1.9-3.1,3.9-6.2,5.8-9.3c0.3-0.6,0.7-1.1,1-1.7c2.3-3.7,4.5-7.4,6.7-11.2
			c0.2-0.4,0.4-0.7,0.6-1.1c2-3.3,3.9-6.7,5.9-10c0.4-0.8,0.9-1.5,1.3-2.3c2.1-3.6,4.1-7.2,6.1-10.8c0.1-0.1,0.1-0.2,0.2-0.3
			c2.1-3.8,4.3-7.6,6.4-11.5c0.3-0.6,0.6-1.2,1-1.8c1.8-3.3,3.5-6.5,5.3-9.8c0.3-0.7,0.7-1.3,1-2c4-7.6,8-15.3,11.8-22.9
			c0.3-0.7,0.7-1.4,1-2.1c1.7-3.4,3.4-6.9,5.1-10.3c0.2-0.4,0.4-0.8,0.6-1.2c1.9-4,3.8-7.9,5.7-11.9c0.1-0.3,0.2-0.5,0.3-0.8
			c1.7-3.6,3.4-7.2,5-10.9c0.3-0.7,0.6-1.4,0.9-2c3.6-7.8,7-15.7,10.4-23.6c0.2-0.5,0.5-1.1,0.7-1.6c1.5-3.5,2.9-7,4.4-10.5
			c0.2-0.6,0.5-1.2,0.7-1.8c1.2-3,2.5-6.1,3.7-9.1c-52.3,130.9-128.5,249.7-223.2,351c0.4-0.5,0.9-0.9,1.3-1.4
			c2.9-3.1,5.8-6.3,8.7-9.5c0.5-0.6,1.1-1.2,1.6-1.7c2.4-2.7,4.8-5.3,7.2-8c0.8-0.9,1.7-1.9,2.5-2.8c2.4-2.7,4.8-5.4,7.2-8.2
			c0.5-0.5,0.9-1.1,1.4-1.6c2.8-3.2,5.6-6.5,8.3-9.8c0.7-0.8,1.3-1.6,2-2.4c2.2-2.6,4.3-5.2,6.5-7.8c0.7-0.9,1.5-1.8,2.2-2.7
			c5.4-6.6,10.8-13.3,16.1-20.1c0.7-0.9,1.4-1.8,2.1-2.6c2.1-2.7,4.2-5.5,6.3-8.2c0.6-0.7,1.1-1.5,1.7-2.2c2.6-3.4,5.2-6.8,7.7-10.3
			c0.4-0.5,0.7-1,1.1-1.5c2.2-3,4.4-5.9,6.5-8.9c0.6-0.9,1.3-1.8,1.9-2.6c2.2-3.1,4.5-6.2,6.7-9.4c0.2-0.4,0.5-0.7,0.8-1.1
			c2.5-3.5,4.9-7.1,7.4-10.6c0.5-0.7,1-1.4,1.5-2.1c2-2.9,4-5.9,5.9-8.8c0.5-0.8,1.1-1.6,1.6-2.4c2.8-4.3,5.6-8.5,8.4-12.8
			c1.9-2.9,3.8-5.9,5.6-8.8C2146.8,1724.1,2147.3,1723.3,2147.8,1722.5z"/>
		<path class="st2" d="M1808.2,1790c9.7,12.4,21.6,24.1,34.5,35.1c53.2-79.8,99.4-174.2,132.9-285.8c-2.5,0.7-5,1.4-7.6,2.2
			C1840.5,1579.5,1750.8,1716.6,1808.2,1790z"/>
		<path class="st2" d="M2231,687c-0.1-0.3-0.2-0.5-0.3-0.8c-0.7-1.7-1.4-3.4-2.1-5c-0.3-0.7-0.6-1.4-0.9-2.2
			C2228.8,681.7,2229.9,684.3,2231,687z"/>
		<path class="st2" d="M2233.3,692.3c0.5,1.2,1,2.4,1.5,3.7C2234.3,694.8,2233.8,693.6,2233.3,692.3z"/>
		<path class="st2" d="M2226.6,676.7c-0.3-0.7-0.6-1.4-0.9-2.1c-0.8-1.8-1.6-3.7-2.4-5.5c-0.9-2.1-1.9-4.3-2.9-6.4
			c-0.8-1.9-1.7-3.7-2.5-5.6c-1-2.1-1.9-4.2-2.9-6.3c-0.9-1.9-1.8-3.8-2.6-5.6c-1-2.1-2-4.2-3-6.2c-0.9-1.9-1.8-3.8-2.7-5.7
			c-1-2.1-2-4.1-3-6.2c-0.9-1.9-1.9-3.8-2.8-5.7c-1-2-2-4.1-3.1-6.1c-1-1.9-1.9-3.8-2.9-5.7c-1-2-2.1-4.1-3.1-6.1
			c-1-1.9-2-3.8-3-5.7c-1.1-2-2.1-4-3.2-6c-1-1.9-2.1-3.8-3.1-5.7c-1.1-2-2.2-4-3.3-6c-1-1.9-2.1-3.7-3.2-5.6
			c-2.2-3.9-4.4-7.8-6.7-11.7c-1-1.7-2-3.4-3-5.1c0,0,0,0,0,0c0,0,0,0-0.1,0C2188.6,596,2208.8,635.7,2226.6,676.7z"/>
		<path class="st2" d="M1634,89.1c-0.9-0.4-1.8-0.8-2.8-1.2c-1.5-0.7-3.1-1.3-4.6-1.9c-0.1-0.1-0.3-0.1-0.4-0.2
			C1628.8,86.9,1631.4,88,1634,89.1z"/>
		<path class="st2" d="M1972.6,312.5c-0.1-0.1-0.3-0.3-0.4-0.4c-1.2-1.2-2.4-2.3-3.7-3.5c-0.1-0.1-0.1-0.1-0.2-0.2
			C1969.8,309.8,1971.2,311.1,1972.6,312.5z"/>
		<path class="st2" d="M1648.5,95.3c-1.3-0.6-2.7-1.2-4-1.8c-1.5-0.7-3-1.3-4.5-1.9c-0.7-0.3-1.5-0.6-2.2-0.9
			C1641.4,92.2,1645,93.8,1648.5,95.3z"/>
		<path class="st2" d="M1881.7,592c16.7,1.7,39.8,6.6,56.6-1.3c-21.6-52.6-46.2-100.6-72.9-144.3
			C1856.1,504.6,1844.4,588.2,1881.7,592z"/>
		<path class="st2" d="M1618.6,82.7c-0.3-0.1-0.5-0.2-0.8-0.3c-1.2-0.5-2.5-1-3.7-1.5C1615.6,81.5,1617.1,82.1,1618.6,82.7z"/>
		<polygon class="st2" points="1983.1,322.6 1983.1,322.6 1983.1,322.6 		"/>
		<path class="st2" d="M1962.2,302.6c-0.3-0.3-0.7-0.6-1-0.9c-1.5-1.4-2.9-2.7-4.4-4c-0.1-0.1-0.2-0.2-0.3-0.2
			C1958.4,299.1,1960.3,300.9,1962.2,302.6z"/>
		<path class="st2" d="M973,456.4c-5.1,63.3,49.6,150.1,24.8,244.1c-24.8,94-4.6,125,21.2,167.3c25.8,42.3,107.3,56.9,83.6,132.9
			c-23.7,76-10.3,125.9,11.4,118.2c21.7-7.8,51.2-107.3,30.9-161.1c-20.4-53.8-74.5-73.2-65.1-137.2c9.4-64,96.1-54.8,131.8-39.5
			c35.6,15.3,83,73.2,79,100.2c-4,27-9.4,64,10.6,78s25.1-54.2,73-97.2c47.9-43,218.5-33.1,369.1-25.9
			c150.6,7.2,98.6-100.3,49-244.7c-49.5-144.4-119.3,6.7-150.5,9.8c-31.2,3.1-91.4-61.7-114.8-141.1
			c-23.4-79.3,27.4-119.5,112.7-108.9c85.3,10.6,133.5-4,84.7-57.5c-48.8-53.5-237-137.2-222.2-175.1c1.5-4,3.9-7,7.1-9.2
			c-171-92.9-319-108.8-324.1-109.3c-14.8,0.1-29.5,0.5-44.3,1.2c-0.2,0-0.5,0-0.7,0c-4.6,0.2-9.1,0.5-13.7,0.7
			c-0.4,0-0.9,0.1-1.3,0.1c-4.4,0.3-8.7,0.6-13.1,0.9c-0.2,0-0.5,0-0.7,0c0,0,0,0,0,0c0,0.2-10.7,100-27.3,151.2
			C1067.4,205.6,987.4,275,973,456.4z"/>
		<path class="st2" d="M1933.5,276.7c-2-1.8-4-3.5-6-5.2c-1.7-1.4-3.3-2.8-5-4.3c-2.2-1.8-4.3-3.7-6.5-5.5c-1.7-1.4-3.3-2.8-5-4.2
			c-2.2-1.8-4.4-3.6-6.6-5.4c-1.7-1.4-3.3-2.7-5-4.1c-2.2-1.8-4.5-3.6-6.7-5.4c-1.6-1.3-3.3-2.6-4.9-3.9c-2.3-1.8-4.6-3.6-7-5.4
			c-1.6-1.2-3.2-2.5-4.8-3.7c-2.5-1.9-5-3.8-7.5-5.6c-1.5-1.1-2.9-2.2-4.4-3.3c-2.9-2.2-5.9-4.3-8.8-6.4c-1-0.8-2.1-1.5-3.1-2.3
			c-4-2.9-8-5.8-12.1-8.6c-0.5-0.3-0.9-0.6-1.4-1c-3.6-2.5-7.1-5-10.7-7.4c-1.3-0.9-2.6-1.8-3.9-2.6c-2.8-1.9-5.5-3.7-8.3-5.6
			c-1.5-1-3.1-2-4.6-3c-2.6-1.7-5.1-3.4-7.7-5c-1.6-1.1-3.3-2.1-4.9-3.1c-2.5-1.6-5-3.2-7.5-4.7c-1.7-1.1-3.4-2.1-5.1-3.2
			c-2.5-1.5-4.9-3.1-7.4-4.6c-1.7-1-3.4-2.1-5.1-3.1c-2.5-1.5-5-3-7.5-4.5c-1.7-1-3.4-2-5.1-3c-2.5-1.5-5.1-2.9-7.6-4.4
			c-1.7-1-3.4-1.9-5-2.9c-2.6-1.5-5.2-2.9-7.9-4.4c-1.6-0.9-3.2-1.8-4.8-2.7c-2.8-1.5-5.5-3-8.3-4.5c-1.5-0.8-3-1.6-4.4-2.4
			c-3.1-1.6-6.2-3.3-9.3-4.9c-1.2-0.6-2.3-1.2-3.5-1.8c-4.1-2.1-8.3-4.2-12.4-6.3c-0.1-0.1-0.3-0.1-0.4-0.2
			c-4.4-2.2-8.9-4.4-13.3-6.6c-0.3-0.1-0.6-0.3-0.9-0.4c-4.1-2-8.1-3.9-12.2-5.8c-1.1-0.5-2.2-1-3.3-1.5c-3.3-1.5-6.5-3-9.8-4.5
			c-1.4-0.6-2.8-1.2-4.1-1.8c-1.6-0.7-3.1-1.4-4.7-2.1C1753,141.5,1848.8,202.9,1933.5,276.7z"/>
		<path class="st2" d="M1942.2,284.4c-1.1-1-2.2-2-3.4-3c-1.6-1.4-3.2-2.9-4.9-4.3c-0.1-0.1-0.2-0.2-0.3-0.3
			C1936.5,279.3,1939.4,281.9,1942.2,284.4z"/>
		<path class="st2" d="M1952,293.2c-0.6-0.6-1.3-1.2-1.9-1.8c-1.6-1.4-3.1-2.8-4.7-4.2c-0.1-0.1-0.2-0.2-0.3-0.3
			C1947.4,289,1949.7,291.1,1952,293.2z"/>
		<path class="st2" d="M1394.4,1563.4c-51.8-79.1-43.5-99.1-49.8-178.6c-6.4-79.5-83.9-172.6-83.9-172.6
			c-62.6-99.6-218.7-1-266.3,81.8c-47.6,82.8-1.4,167.6-18,213.2c-16.7,45.6-166.3,152-217.1,186.5
			c-50.8,34.5-161.3,72.4-177.4,180.5c-16.1,108.1,51.8,79.1,51.8,79.1c-14.7-59.6,24.8-88.3,98.3-128.7
			c73.5-40.4,147.5-24,218.5-21.8c71,2.2,261-36.3,374.4-65.7C1438.3,1707.9,1446.2,1642.5,1394.4,1563.4z"/>
		<path class="st3" d="M1244.1,1.1c4.2,0.2,8.5,0.4,12.7,0.6c0.7,0,1.4,0.1,2.2,0.1c4,0.2,8.1,0.5,12.1,0.8c0.8,0.1,1.6,0.1,2.5,0.2
			c4,0.3,8,0.6,11.9,0.9c0.8,0.1,1.7,0.1,2.5,0.2c4,0.3,8,0.7,12,1.1c0.8,0.1,1.5,0.1,2.3,0.2c4.2,0.4,8.4,0.8,12.5,1.3
			c0.6,0.1,1.1,0.1,1.7,0.2c4.6,0.5,9.1,1,13.7,1.6c0.2,0,0.4,0,0.5,0.1c19.3,2.3,38.6,5.2,57.8,8.5c0.3,0,0.5,0.1,0.8,0.1
			c4.4,0.8,8.8,1.6,13.2,2.4c0.8,0.1,1.5,0.3,2.3,0.4c3.9,0.7,7.8,1.5,11.7,2.3c1,0.2,2.1,0.4,3.1,0.6c3.6,0.7,7.3,1.5,10.9,2.3
			c1.2,0.2,2.3,0.5,3.5,0.8c3.5,0.8,7,1.5,10.5,2.3c1.2,0.3,2.5,0.6,3.7,0.8c3.5,0.8,6.9,1.6,10.4,2.4c1.2,0.3,2.5,0.6,3.7,0.9
			c3.5,0.8,7,1.7,10.4,2.6c1.2,0.3,2.3,0.6,3.5,0.9c3.6,0.9,7.2,1.9,10.8,2.8c1,0.3,2,0.5,3,0.8c3.9,1.1,7.9,2.2,11.8,3.3
			c0.7,0.2,1.3,0.4,2,0.6c14,4,28,8.3,41.9,12.8c0.4,0.1,0.7,0.2,1.1,0.4c4.2,1.4,8.3,2.8,12.5,4.2c1,0.3,2,0.7,3.1,1.1
			c3.5,1.2,7,2.4,10.4,3.7c1.3,0.5,2.6,0.9,3.9,1.4c3.2,1.1,6.4,2.3,9.5,3.5c1.5,0.5,2.9,1.1,4.4,1.6c3,1.1,6.1,2.3,9.1,3.4
			c1.5,0.6,3.1,1.2,4.6,1.8c1.1,0.4,2.2,0.8,3.3,1.3c-114.8-45.3-238.7-72.3-368.2-77.4c1.1,0,2.1,0.1,3.2,0.1
			C1243.1,1,1243.6,1.1,1244.1,1.1z"/>
		<path class="st3" d="M2296.8,1350.1C2296.8,1350.1,2296.8,1350.1,2296.8,1350.1c-0.3,1.6-0.7,3.3-1,4.9c-0.2,0.9-0.4,1.8-0.6,2.7
			c-0.9,4.1-1.7,8.2-2.6,12.2c0,0.1,0,0.2-0.1,0.3c-0.9,3.9-1.8,7.8-2.7,11.7c-0.2,0.9-0.4,1.8-0.6,2.7c-0.8,3.5-1.7,7.1-2.6,10.6
			c-0.1,0.5-0.3,1-0.4,1.6c-1,4.1-2.1,8.2-3.1,12.3c-0.1,0.5-0.3,1-0.4,1.5c-0.9,3.4-1.8,6.8-2.7,10.1c0,0,0.1-0.1,0.1-0.1
			c12.6-46.4,22.3-94,29-142.6c0-0.1,0-0.2,0-0.2C2305.7,1302,2301.6,1326.1,2296.8,1350.1z"/>
		<path class="st3" d="M2014.4,1895c0.5-0.5,1-1.1,1.5-1.6c-0.2,0.2-0.4,0.4-0.6,0.6C2015,1894.3,2014.7,1894.7,2014.4,1895z"/>
		<path class="st3" d="M1986.9,1923.2c3.4-3.4,6.8-6.8,10.1-10.2c-0.1,0.1-0.2,0.2-0.3,0.3C1993.5,1916.7,1990.2,1920,1986.9,1923.2
			z"/>
		<path class="st3" d="M2005.4,1904.5c0.4-0.4,0.8-0.8,1.1-1.2c-0.2,0.2-0.4,0.5-0.7,0.7C2005.7,1904.2,2005.5,1904.3,2005.4,1904.5
			z"/>
		<path class="st3" d="M1614.1,80.9c-1.6-0.7-3.3-1.3-4.9-2c1.3,0.5,2.6,1,3.9,1.6C1613.5,80.6,1613.8,80.7,1614.1,80.9z"/>
		<path class="st3" d="M2243.1,716.8c0.9,2.4,1.9,4.9,2.8,7.3c0.6,1.6,1.2,3.2,1.8,4.9c0.9,2.4,1.8,4.8,2.7,7.2
			c0.6,1.7,1.2,3.3,1.8,5c0.9,2.4,1.7,4.8,2.6,7.2c0.6,1.7,1.2,3.3,1.8,5c0.8,2.4,1.7,4.9,2.5,7.3c0.6,1.6,1.1,3.3,1.7,4.9
			c0.8,2.5,1.6,4.9,2.5,7.4c0.5,1.6,1.1,3.2,1.6,4.8c0.8,2.5,1.6,5,2.4,7.6c0.5,1.5,1,3.1,1.4,4.6c0.8,2.6,1.6,5.2,2.4,7.8
			c0.4,1.4,0.8,2.8,1.3,4.2c0.8,2.8,1.6,5.5,2.4,8.3c0.3,1.1,0.6,2.2,1,3.3c0.9,3.1,1.8,6.1,2.6,9.2c0,0.2,0.1,0.4,0.1,0.5
			c3.3,11.7,6.3,23.5,9.2,35.3c0,0.1,0,0.2,0.1,0.3c0.8,3.3,1.6,6.7,2.4,10.1c0.2,0.8,0.4,1.6,0.6,2.5c0.7,3.1,1.4,6.3,2.1,9.4
			c0.2,1,0.5,2.1,0.7,3.1c0.7,3,1.3,6.1,1.9,9.1c0.2,1.1,0.5,2.2,0.7,3.4c0.6,3,1.2,6.1,1.8,9.1c0.2,1.1,0.4,2.2,0.7,3.4
			c0.6,3.1,1.2,6.1,1.8,9.2c0.2,1.1,0.4,2.1,0.6,3.2c0.6,3.2,1.1,6.3,1.7,9.5c0.1,0.3,0.1,0.6,0.2,0.9c0,0,0,0,0,0
			c6.6,38.2,11.3,76.6,13.9,115.2c-8.4-123.5-36.8-241.5-81.9-350.7c2.2,5.4,4.4,10.8,6.5,16.2
			C2242,713.9,2242.6,715.4,2243.1,716.8z"/>
		<path class="st3" d="M1228.7,0.5c2.8,0.1,5.6,0.2,8.5,0.3c-3.7-0.1-7.3-0.3-11-0.4c0.7,0,1.4,0,2.1,0.1
			C1228.5,0.5,1228.6,0.5,1228.7,0.5z"/>
		<path class="st3" d="M1958.9,1950.1c-0.4,0.4-0.8,0.7-1.1,1.1C1958.2,1950.8,1958.6,1950.4,1958.9,1950.1z"/>
		<path class="st3" d="M1983.3,322.8c3.3,3.2,6.5,6.4,9.7,9.7C1989.7,329.2,1986.5,326,1983.3,322.8z"/>
		<path class="st3" d="M1982.3,1927.8c-1.7,1.7-3.4,3.4-5.2,5C1978.9,1931.1,1980.6,1929.5,1982.3,1927.8z"/>
		<path class="st3" d="M1998.1,337.6c1.5,1.5,3,3,4.5,4.6C2001.1,340.7,1999.6,339.2,1998.1,337.6z"/>
		<path class="st3" d="M1973.1,312.9c3.3,3.2,6.7,6.4,10,9.7C1979.8,319.4,1976.5,316.2,1973.1,312.9z"/>
		<path class="st3" d="M1963.2,303.5c1.7,1.6,3.3,3.1,5,4.7C1966.5,306.7,1964.8,305.1,1963.2,303.5z"/>
		<path class="st3" d="M2009.4,349.4c0.8,0.8,1.6,1.7,2.4,2.5C2011,351.1,2010.2,350.3,2009.4,349.4z"/>
		<path class="st3" d="M2231.2,687.4c0.6,1.4,1.2,2.8,1.8,4.3C2232.4,690.2,2231.8,688.8,2231.2,687.4z"/>
		<path class="st3" d="M2020.1,360.8c0.2,0.3,0.5,0.5,0.7,0.8C2020.6,361.3,2020.4,361,2020.1,360.8z"/>
		<path class="st3" d="M2317.9,1065.5c0.1,2.6,0.3,5.2,0.4,7.8C2318.1,1070.7,2318,1068.1,2317.9,1065.5z"/>
		<path class="st3" d="M2318.6,1082.4c0.1,1.5,0.1,2.9,0.2,4.4C2318.7,1085.3,2318.7,1083.8,2318.6,1082.4z"/>
		<path class="st3" d="M1943.5,285.5c0.4,0.3,0.7,0.7,1.1,1C1944.2,286.2,1943.9,285.9,1943.5,285.5z"/>
		<path class="st3" d="M2316.9,1049.6c0.2,3.5,0.5,7,0.7,10.4C2317.4,1056.5,2317.1,1053.1,2316.9,1049.6z"/>
		<path class="st3" d="M1953.3,294.4c1,0.9,1.9,1.8,2.9,2.6C1955.2,296.1,1954.3,295.3,1953.3,294.4z"/>
		<path class="st3" d="M1256.4,2248c-3.6,0.2-7.2,0.4-10.9,0.5C1249.2,2248.3,1252.8,2248.2,1256.4,2248z"/>
		<path class="st3" d="M1625,2164.4c-117.4,48.5-241.3,76.4-366.3,83.5C1387.9,2240.6,1511.2,2211.5,1625,2164.4z"/>
		<path class="st3" d="M1223.3,2249.3c-1.6,0-3.3,0.1-4.9,0.1C1220,2249.4,1221.6,2249.3,1223.3,2249.3z"/>
		<path class="st3" d="M1240.5,2248.7c-2.8,0.1-5.6,0.2-8.4,0.3C1234.9,2248.9,1237.7,2248.8,1240.5,2248.7z"/>
		<path class="st3" d="M1633.8,2160.6c-2.2,0.9-4.3,1.9-6.5,2.8C1629.5,2162.5,1631.7,2161.6,1633.8,2160.6z"/>
		<path class="st3" d="M1970.4,1939.3c-1,0.9-2,1.9-2.9,2.8C1968.4,1941.2,1969.4,1940.3,1970.4,1939.3z"/>
		<path class="st3" d="M1199,0c1.7,0,3.3,0,5,0C1202.4,0,1200.7,0,1199,0z"/>
		<path class="st3" d="M1623,84.5c0.8,0.3,1.6,0.7,2.4,1C1624.6,85.1,1623.8,84.8,1623,84.5z"/>
		<path class="st3" d="M1642.7,2156.9c-0.6,0.3-1.2,0.5-1.7,0.8C1641.5,2157.4,1642.1,2157.1,1642.7,2156.9z"/>
		<path class="st3" d="M1212.7,0.1c2.8,0,5.7,0.1,8.5,0.2C1218.4,0.3,1215.6,0.2,1212.7,0.1z"/>
		<path d="M2279.8,1421.4c-0.2,0.8-0.4,1.6-0.7,2.4c-2.2,8.1-4.6,16.2-7,24.3c-0.2,0.7-0.4,1.3-0.6,2c-1.1,3.5-2.1,7.1-3.2,10.6
			c-0.2,0.6-0.4,1.2-0.6,1.8c-2.5,8.1-5.2,16.2-7.9,24.3c-0.2,0.7-0.5,1.4-0.7,2.1c-1.3,3.7-2.6,7.4-3.9,11.1
			c-0.1,0.3-0.2,0.6-0.3,0.9c-1.5,4.1-2.9,8.2-4.4,12.3c-0.1,0.4-0.3,0.7-0.4,1.1c-0.7,1.9-1.4,3.8-2.1,5.7
			c12.2-32.5,22.9-65.6,32.1-99.4c0,0-0.1,0.1-0.1,0.1C2279.9,1421,2279.9,1421.2,2279.8,1421.4z"/>
		<path class="st3" d="M2279.8,1421.4c-0.2,0.8-0.4,1.6-0.7,2.4c-2.2,8.1-4.6,16.2-7,24.3c-0.2,0.7-0.4,1.3-0.6,2
			c-1.1,3.5-2.1,7.1-3.2,10.6c-0.2,0.6-0.4,1.2-0.6,1.8c-2.5,8.1-5.2,16.2-7.9,24.3c-0.2,0.7-0.5,1.4-0.7,2.1
			c-1.3,3.7-2.6,7.4-3.9,11.1c-0.1,0.3-0.2,0.6-0.3,0.9c-1.5,4.1-2.9,8.2-4.4,12.3c-0.1,0.4-0.3,0.7-0.4,1.1
			c-0.7,1.9-1.4,3.8-2.1,5.7c12.2-32.5,22.9-65.6,32.1-99.4c0,0-0.1,0.1-0.1,0.1C2279.9,1421,2279.9,1421.2,2279.8,1421.4z"/>
		<path d="M2319,1157c-0.1,2.7-0.2,5.5-0.3,8.2C2318.8,1162.5,2318.9,1159.7,2319,1157z"/>
		<path class="st3" d="M2319,1157c-0.1,2.7-0.2,5.5-0.3,8.2C2318.8,1162.5,2318.9,1159.7,2319,1157z"/>
		<path d="M2245.3,1527.2c-0.3,0.9-0.7,1.8-1,2.6c0.9-2.3,1.8-4.6,2.6-7c-0.3,0.8-0.6,1.6-0.9,2.3
			C2245.8,1525.9,2245.5,1526.6,2245.3,1527.2z"/>
		<path class="st3" d="M2245.3,1527.2c-0.3,0.9-0.7,1.8-1,2.6c0.9-2.3,1.8-4.6,2.6-7c-0.3,0.8-0.6,1.6-0.9,2.3
			C2245.8,1525.9,2245.5,1526.6,2245.3,1527.2z"/>
		<path d="M2319.3,1143.5c0,1.6-0.1,3.2-0.1,4.8C2319.2,1146.7,2319.2,1145.1,2319.3,1143.5z"/>
		<path class="st3" d="M2319.3,1143.5c0,1.6-0.1,3.2-0.1,4.8C2319.2,1146.7,2319.2,1145.1,2319.3,1143.5z"/>
		<path d="M2318.5,1170.2c-0.1,3.6-0.3,7.3-0.5,10.9C2318.2,1177.5,2318.4,1173.9,2318.5,1170.2z"/>
		<path class="st3" d="M2318.5,1170.2c-0.1,3.6-0.3,7.3-0.5,10.9C2318.2,1177.5,2318.4,1173.9,2318.5,1170.2z"/>
		<path d="M2240.1,1540.6c-0.2,0.5-0.4,1-0.6,1.4C2239.7,1541.5,2239.9,1541.1,2240.1,1540.6z"/>
		<path class="st3" d="M2240.1,1540.6c-0.2,0.5-0.4,1-0.6,1.4C2239.7,1541.5,2239.9,1541.1,2240.1,1540.6z"/>
		<path d="M2309.1,1278c4.3-31.2,7.2-62.9,8.9-94.9c-1.6,31.6-4.6,63.2-8.9,94.6C2309.1,1277.9,2309.1,1278,2309.1,1278z"/>
		<path class="st3" d="M2309.1,1278c4.3-31.2,7.2-62.9,8.9-94.9c-1.6,31.6-4.6,63.2-8.9,94.6C2309.1,1277.9,2309.1,1278,2309.1,1278
			z"/>
		<path class="st1" d="M1185.1,0.1c14.4-0.1,28.8,0,43.3,0.5c-0.7,0-1.4-0.1-2.1-0.1c-1.6,0-3.3-0.1-4.9-0.1
			c-2.8-0.1-5.7-0.1-8.5-0.2c-2.9,0-5.8-0.1-8.7-0.1c-1.7,0-3.3,0-5,0c-4.7,0-9.4,0-14.1,0C1184.9,0,1185,0,1185.1,0.1z"/>
		<path class="st3" d="M1185.1,0.1c14.4-0.1,28.8,0,43.3,0.5c-0.7,0-1.4-0.1-2.1-0.1c-1.6,0-3.3-0.1-4.9-0.1
			c-2.8-0.1-5.7-0.1-8.5-0.2c-2.9,0-5.8-0.1-8.7-0.1c-1.7,0-3.3,0-5,0c-4.7,0-9.4,0-14.1,0C1184.9,0,1185,0,1185.1,0.1z"/>
		<path class="st1" d="M2282.7,1410.7c0.1-0.5,0.3-1,0.4-1.5C2283,1409.7,2282.8,1410.2,2282.7,1410.7z"/>
		<path class="st3" d="M2282.7,1410.7c0.1-0.5,0.3-1,0.4-1.5C2283,1409.7,2282.8,1410.2,2282.7,1410.7z"/>
		<path class="st1" d="M2015.3,1894c0.2-0.2,0.4-0.4,0.6-0.6c0.1-0.1,0.2-0.2,0.3-0.4C2016,1893.3,2015.7,1893.7,2015.3,1894z"/>
		<path class="st3" d="M2015.3,1894c0.2-0.2,0.4-0.4,0.6-0.6c0.1-0.1,0.2-0.2,0.3-0.4C2016,1893.3,2015.7,1893.7,2015.3,1894z"/>
		<path class="st1" d="M1933.6,276.8c0,0-0.1-0.1-0.1-0.1C1933.6,276.8,1933.6,276.8,1933.6,276.8z"/>
		<path class="st3" d="M1933.6,276.8c0,0-0.1-0.1-0.1-0.1C1933.6,276.8,1933.6,276.8,1933.6,276.8z"/>
		<path class="st1" d="M1648.9,95.5c-0.1,0-0.2-0.1-0.3-0.1C1648.6,95.4,1648.7,95.4,1648.9,95.5z"/>
		<path class="st3" d="M1648.9,95.5c-0.1,0-0.2-0.1-0.3-0.1C1648.6,95.4,1648.7,95.4,1648.9,95.5z"/>
		<path class="st1" d="M1956.5,297.4c-0.1-0.1-0.3-0.2-0.4-0.4c-1-0.9-1.9-1.8-2.9-2.6c-0.4-0.4-0.9-0.8-1.3-1.2
			C1953.5,294.6,1955,296,1956.5,297.4z"/>
		<path class="st3" d="M1956.5,297.4c-0.1-0.1-0.3-0.2-0.4-0.4c-1-0.9-1.9-1.8-2.9-2.6c-0.4-0.4-0.9-0.8-1.3-1.2
			C1953.5,294.6,1955,296,1956.5,297.4z"/>
		<path class="st1" d="M1968.4,308.5c-0.1-0.1-0.2-0.1-0.2-0.2c-1.7-1.6-3.3-3.2-5-4.7c-0.3-0.3-0.6-0.6-1-0.9
			C1964.3,304.6,1966.3,306.5,1968.4,308.5z"/>
		<path class="st3" d="M1968.4,308.5c-0.1-0.1-0.2-0.1-0.2-0.2c-1.7-1.6-3.3-3.2-5-4.7c-0.3-0.3-0.6-0.6-1-0.9
			C1964.3,304.6,1966.3,306.5,1968.4,308.5z"/>
		<path class="st1" d="M2286.2,1396.8c0.1-0.5,0.3-1,0.4-1.6C2286.5,1395.8,2286.4,1396.3,2286.2,1396.8z"/>
		<path class="st3" d="M2286.2,1396.8c0.1-0.5,0.3-1,0.4-1.6C2286.5,1395.8,2286.4,1396.3,2286.2,1396.8z"/>
		<path class="st1" d="M1945.1,286.9c-0.2-0.1-0.3-0.3-0.5-0.4c-0.4-0.3-0.7-0.7-1.1-1c-0.4-0.4-0.9-0.8-1.3-1.1
			C1943.1,285.2,1944.1,286.1,1945.1,286.9z"/>
		<path class="st3" d="M1945.1,286.9c-0.2-0.1-0.3-0.3-0.5-0.4c-0.4-0.3-0.7-0.7-1.1-1c-0.4-0.4-0.9-0.8-1.3-1.1
			C1943.1,285.2,1944.1,286.1,1945.1,286.9z"/>
		<path class="st1" d="M1626.2,85.8c-0.3-0.1-0.5-0.2-0.8-0.3c-0.8-0.3-1.6-0.7-2.4-1c-1.5-0.6-2.9-1.2-4.4-1.8
			C1621.1,83.7,1623.7,84.7,1626.2,85.8z"/>
		<path class="st3" d="M1626.2,85.8c-0.3-0.1-0.5-0.2-0.8-0.3c-0.8-0.3-1.6-0.7-2.4-1c-1.5-0.6-2.9-1.2-4.4-1.8
			C1621.1,83.7,1623.7,84.7,1626.2,85.8z"/>
		<path class="st1" d="M1613.1,80.5c-1.3-0.5-2.6-1.1-3.9-1.6c-0.5-0.2-1.1-0.4-1.6-0.6c-1.1-0.4-2.2-0.9-3.3-1.3
			C1607.3,78.1,1610.2,79.3,1613.1,80.5z"/>
		<path class="st3" d="M1613.1,80.5c-1.3-0.5-2.6-1.1-3.9-1.6c-0.5-0.2-1.1-0.4-1.6-0.6c-1.1-0.4-2.2-0.9-3.3-1.3
			C1607.3,78.1,1610.2,79.3,1613.1,80.5z"/>
		<path class="st1" d="M2005.9,1904c0.2-0.2,0.4-0.5,0.7-0.7c0.4-0.4,0.8-0.8,1.2-1.3C2007.1,1902.7,2006.5,1903.3,2005.9,1904z"/>
		<path class="st3" d="M2005.9,1904c0.2-0.2,0.4-0.5,0.7-0.7c0.4-0.4,0.8-0.8,1.2-1.3C2007.1,1902.7,2006.5,1903.3,2005.9,1904z"/>
		<path class="st1" d="M1242.6,1c-1.1,0-2.1-0.1-3.2-0.1c-0.7,0-1.5-0.1-2.2-0.1c-2.8-0.1-5.6-0.2-8.5-0.3
			C1233.3,0.7,1237.9,0.8,1242.6,1z"/>
		<path class="st3" d="M1242.6,1c-1.1,0-2.1-0.1-3.2-0.1c-0.7,0-1.5-0.1-2.2-0.1c-2.8-0.1-5.6-0.2-8.5-0.3
			C1233.3,0.7,1237.9,0.8,1242.6,1z"/>
		<path class="st1" d="M1637.8,90.7c-1.3-0.5-2.6-1.1-3.8-1.6C1635.3,89.6,1636.5,90.2,1637.8,90.7z"/>
		<path class="st3" d="M1637.8,90.7c-1.3-0.5-2.6-1.1-3.8-1.6C1635.3,89.6,1636.5,90.2,1637.8,90.7z"/>
		<path class="st1" d="M1996.8,1913.3c0,0-90.5-34.5-154.1-88.3c-244.5,366.4-638.5,424.5-638.5,424.5c4.7,0,9.4-0.1,14.1-0.2
			c1.6,0,3.3-0.1,4.9-0.1c2.9-0.1,5.9-0.1,8.8-0.2c2.8-0.1,5.6-0.2,8.4-0.3c1.7-0.1,3.4-0.1,5.1-0.2c3.6-0.2,7.2-0.3,10.9-0.5
			c0.8,0,1.6-0.1,2.3-0.1c124.9-7.1,248.9-34.9,366.3-83.5c0.8-0.3,1.6-0.6,2.3-1c2.2-0.9,4.4-1.8,6.5-2.8c2.4-1,4.8-2,7.1-3
			c0.6-0.2,1.2-0.5,1.7-0.8c116.7-50.7,223-120.6,315.1-205.7c0.4-0.4,0.8-0.7,1.1-1.1c2.8-2.6,5.7-5.3,8.5-7.9c1-0.9,2-1.9,2.9-2.8
			c2.3-2.2,4.5-4.3,6.8-6.5c1.7-1.7,3.4-3.4,5.2-5c1.5-1.5,3.1-3,4.6-4.5C1990.2,1920,1993.5,1916.7,1996.8,1913.3L1996.8,1913.3z"
			/>
		<path class="st3" d="M1996.8,1913.3c0,0-90.5-34.5-154.1-88.3c-244.5,366.4-638.5,424.5-638.5,424.5c4.7,0,9.4-0.1,14.1-0.2
			c1.6,0,3.3-0.1,4.9-0.1c2.9-0.1,5.9-0.1,8.8-0.2c2.8-0.1,5.6-0.2,8.4-0.3c1.7-0.1,3.4-0.1,5.1-0.2c3.6-0.2,7.2-0.3,10.9-0.5
			c0.8,0,1.6-0.1,2.3-0.1c124.9-7.1,248.9-34.9,366.3-83.5c0.8-0.3,1.6-0.6,2.3-1c2.2-0.9,4.4-1.8,6.5-2.8c2.4-1,4.8-2,7.1-3
			c0.6-0.2,1.2-0.5,1.7-0.8c116.7-50.7,223-120.6,315.1-205.7c0.4-0.4,0.8-0.7,1.1-1.1c2.8-2.6,5.7-5.3,8.5-7.9c1-0.9,2-1.9,2.9-2.8
			c2.3-2.2,4.5-4.3,6.8-6.5c1.7-1.7,3.4-3.4,5.2-5c1.5-1.5,3.1-3,4.6-4.5C1990.2,1920,1993.5,1916.7,1996.8,1913.3L1996.8,1913.3z"
			/>
		<path class="st1" d="M2289.2,1384.7c0.2-0.9,0.4-1.8,0.6-2.7C2289.6,1382.9,2289.4,1383.8,2289.2,1384.7z"/>
		<path class="st3" d="M2289.2,1384.7c0.2-0.9,0.4-1.8,0.6-2.7C2289.6,1382.9,2289.4,1383.8,2289.2,1384.7z"/>
		<path class="st1" d="M1714.8,177.3c-97-44.9-178.9-86.8-205.6-67.9c121.5,66,254.7,171,356.2,337c0.3-1.6,0.5-3.2,0.8-4.8
			C1875.7,383.2,1823.2,227.5,1714.8,177.3z"/>
		<path class="st3" d="M1714.8,177.3c-97-44.9-178.9-86.8-205.6-67.9c121.5,66,254.7,171,356.2,337c0.3-1.6,0.5-3.2,0.8-4.8
			C1875.7,383.2,1823.2,227.5,1714.8,177.3z"/>
		<path class="st1" d="M1259,1.8c4,0.2,8.1,0.5,12.1,0.8C1267.1,2.3,1263,2.1,1259,1.8z"/>
		<path class="st3" d="M1259,1.8c4,0.2,8.1,0.5,12.1,0.8C1267.1,2.3,1263,2.1,1259,1.8z"/>
		<path class="st1" d="M1244.1,1.1c4.2,0.2,8.5,0.4,12.7,0.6C1252.6,1.5,1248.4,1.3,1244.1,1.1z"/>
		<path class="st3" d="M1244.1,1.1c4.2,0.2,8.5,0.4,12.7,0.6C1252.6,1.5,1248.4,1.3,1244.1,1.1z"/>
		<path class="st1" d="M1590.7,71.7c3,1.1,6.1,2.3,9.1,3.4C1596.7,74,1593.7,72.9,1590.7,71.7z"/>
		<path class="st3" d="M1590.7,71.7c3,1.1,6.1,2.3,9.1,3.4C1596.7,74,1593.7,72.9,1590.7,71.7z"/>
		<path class="st1" d="M1576.7,66.6c3.2,1.1,6.4,2.3,9.5,3.5C1583.1,68.9,1579.9,67.8,1576.7,66.6z"/>
		<path class="st3" d="M1576.7,66.6c3.2,1.1,6.4,2.3,9.5,3.5C1583.1,68.9,1579.9,67.8,1576.7,66.6z"/>
		<path class="st1" d="M1273.6,2.8c4,0.3,8,0.6,11.9,0.9C1281.6,3.3,1277.6,3.1,1273.6,2.8z"/>
		<path class="st3" d="M1273.6,2.8c4,0.3,8,0.6,11.9,0.9C1281.6,3.3,1277.6,3.1,1273.6,2.8z"/>
		<path class="st1" d="M1562.4,61.6c3.5,1.2,7,2.4,10.4,3.7C1569.3,64,1565.9,62.8,1562.4,61.6z"/>
		<path class="st3" d="M1562.4,61.6c3.5,1.2,7,2.4,10.4,3.7C1569.3,64,1565.9,62.8,1562.4,61.6z"/>
		<path class="st1" d="M2247.8,729c0.9,2.4,1.8,4.8,2.7,7.2C2249.6,733.8,2248.7,731.4,2247.8,729z"/>
		<path class="st3" d="M2247.8,729c0.9,2.4,1.8,4.8,2.7,7.2C2249.6,733.8,2248.7,731.4,2247.8,729z"/>
		<path class="st1" d="M2252.3,741.2c0.9,2.4,1.7,4.8,2.6,7.2C2254,746,2253.1,743.6,2252.3,741.2z"/>
		<path class="st3" d="M2252.3,741.2c0.9,2.4,1.7,4.8,2.6,7.2C2254,746,2253.1,743.6,2252.3,741.2z"/>
		<path class="st1" d="M2260.8,765.7c0.8,2.5,1.6,4.9,2.5,7.4C2262.4,770.6,2261.6,768.2,2260.8,765.7z"/>
		<path class="st3" d="M2260.8,765.7c0.8,2.5,1.6,4.9,2.5,7.4C2262.4,770.6,2261.6,768.2,2260.8,765.7z"/>
		<path class="st1" d="M1983.1,322.6C1983.1,322.6,1983.1,322.6,1983.1,322.6c-3.3-3.3-6.7-6.5-10-9.7c-0.2-0.2-0.3-0.3-0.5-0.5
			C1976.1,315.8,1979.6,319.2,1983.1,322.6z"/>
		<path class="st3" d="M1983.1,322.6C1983.1,322.6,1983.1,322.6,1983.1,322.6c-3.3-3.3-6.7-6.5-10-9.7c-0.2-0.2-0.3-0.3-0.5-0.5
			C1976.1,315.8,1979.6,319.2,1983.1,322.6z"/>
		<path class="st1" d="M2243.1,716.8c0.9,2.4,1.9,4.9,2.8,7.3C2245,721.7,2244.1,719.3,2243.1,716.8z"/>
		<path class="st3" d="M2243.1,716.8c0.9,2.4,1.9,4.9,2.8,7.3C2245,721.7,2244.1,719.3,2243.1,716.8z"/>
		<path class="st1" d="M1288,3.9c4,0.3,8,0.7,12,1.1C1296.1,4.6,1292,4.2,1288,3.9z"/>
		<path class="st3" d="M1288,3.9c4,0.3,8,0.7,12,1.1C1296.1,4.6,1292,4.2,1288,3.9z"/>
		<path class="st1" d="M2256.6,753.4c0.8,2.4,1.7,4.9,2.5,7.3C2258.3,758.3,2257.5,755.9,2256.6,753.4z"/>
		<path class="st3" d="M2256.6,753.4c0.8,2.4,1.7,4.9,2.5,7.3C2258.3,758.3,2257.5,755.9,2256.6,753.4z"/>
		<path class="st1" d="M1448.3,28.8c3.5,0.8,6.9,1.6,10.4,2.4C1455.2,30.4,1451.7,29.6,1448.3,28.8z"/>
		<path class="st3" d="M1448.3,28.8c3.5,0.8,6.9,1.6,10.4,2.4C1455.2,30.4,1451.7,29.6,1448.3,28.8z"/>
		<path class="st1" d="M1462.3,32.2c3.5,0.8,7,1.7,10.4,2.6C1469.3,33.9,1465.8,33,1462.3,32.2z"/>
		<path class="st3" d="M1462.3,32.2c3.5,0.8,7,1.7,10.4,2.6C1469.3,33.9,1465.8,33,1462.3,32.2z"/>
		<path class="st1" d="M1434.1,25.7c3.5,0.8,7,1.5,10.5,2.3C1441.1,27.2,1437.6,26.4,1434.1,25.7z"/>
		<path class="st3" d="M1434.1,25.7c3.5,0.8,7,1.5,10.5,2.3C1441.1,27.2,1437.6,26.4,1434.1,25.7z"/>
		<path class="st1" d="M1404.9,19.7c3.9,0.7,7.8,1.5,11.7,2.3C1412.7,21.2,1408.8,20.5,1404.9,19.7z"/>
		<path class="st3" d="M1404.9,19.7c3.9,0.7,7.8,1.5,11.7,2.3C1412.7,21.2,1408.8,20.5,1404.9,19.7z"/>
		<path class="st1" d="M1419.7,22.6c3.6,0.7,7.3,1.5,10.9,2.3C1426.9,24.1,1423.3,23.4,1419.7,22.6z"/>
		<path class="st3" d="M1419.7,22.6c3.6,0.7,7.3,1.5,10.9,2.3C1426.9,24.1,1423.3,23.4,1419.7,22.6z"/>
		<path class="st1" d="M1476.2,35.6c3.6,0.9,7.2,1.9,10.8,2.8C1483.5,37.5,1479.9,36.6,1476.2,35.6z"/>
		<path class="st3" d="M1476.2,35.6c3.6,0.9,7.2,1.9,10.8,2.8C1483.5,37.5,1479.9,36.6,1476.2,35.6z"/>
		<path class="st1" d="M1546.9,56.3c4.2,1.4,8.3,2.8,12.5,4.2C1555.2,59.1,1551,57.7,1546.9,56.3z"/>
		<path class="st3" d="M1546.9,56.3c4.2,1.4,8.3,2.8,12.5,4.2C1555.2,59.1,1551,57.7,1546.9,56.3z"/>
		<path class="st1" d="M1302.4,5.1c4.2,0.4,8.4,0.8,12.5,1.3C1310.7,6,1306.5,5.5,1302.4,5.1z"/>
		<path class="st3" d="M1302.4,5.1c4.2,0.4,8.4,0.8,12.5,1.3C1310.7,6,1306.5,5.5,1302.4,5.1z"/>
		<path class="st1" d="M1503.9,43.1c14,4,28,8.3,41.9,12.8C1531.9,51.4,1517.9,47.1,1503.9,43.1z"/>
		<path class="st3" d="M1503.9,43.1c14,4,28,8.3,41.9,12.8C1531.9,51.4,1517.9,47.1,1503.9,43.1z"/>
		<path class="st1" d="M1316.6,6.6c4.6,0.5,9.1,1,13.7,1.6C1325.7,7.6,1321.2,7.1,1316.6,6.6z"/>
		<path class="st3" d="M1316.6,6.6c4.6,0.5,9.1,1,13.7,1.6C1325.7,7.6,1321.2,7.1,1316.6,6.6z"/>
		<path class="st1" d="M1490.1,39.3c3.9,1.1,7.9,2.2,11.8,3.3C1498,41.5,1494,40.4,1490.1,39.3z"/>
		<path class="st3" d="M1490.1,39.3c3.9,1.1,7.9,2.2,11.8,3.3C1498,41.5,1494,40.4,1490.1,39.3z"/>
		<path class="st1" d="M1330.8,8.2c19.3,2.3,38.6,5.2,57.8,8.5C1369.4,13.4,1350.1,10.6,1330.8,8.2z"/>
		<path class="st3" d="M1330.8,8.2c19.3,2.3,38.6,5.2,57.8,8.5C1369.4,13.4,1350.1,10.6,1330.8,8.2z"/>
		<path class="st1" d="M2226.6,676.7c0.3,0.8,0.7,1.5,1,2.3C2227.3,678.2,2227,677.5,2226.6,676.7z"/>
		<path class="st3" d="M2226.6,676.7c0.3,0.8,0.7,1.5,1,2.3C2227.3,678.2,2227,677.5,2226.6,676.7z"/>
		<path class="st1" d="M2298.6,909.1c0.6,3.1,1.2,6.1,1.8,9.2C2299.8,915.2,2299.2,912.1,2298.6,909.1z"/>
		<path class="st3" d="M2298.6,909.1c0.6,3.1,1.2,6.1,1.8,9.2C2299.8,915.2,2299.2,912.1,2298.6,909.1z"/>
		<path class="st1" d="M2241.4,712.5c-2.1-5.4-4.3-10.8-6.5-16.2c0-0.1-0.1-0.2-0.1-0.3C2237,701.5,2239.2,707,2241.4,712.5z"/>
		<path class="st3" d="M2241.4,712.5c-2.1-5.4-4.3-10.8-6.5-16.2c0-0.1-0.1-0.2-0.1-0.3C2237,701.5,2239.2,707,2241.4,712.5z"/>
		<path class="st1" d="M2295.2,1357.7c0.2-0.9,0.4-1.8,0.6-2.7C2295.6,1355.9,2295.4,1356.8,2295.2,1357.7z"/>
		<path class="st3" d="M2295.2,1357.7c0.2-0.9,0.4-1.8,0.6-2.7C2295.6,1355.9,2295.4,1356.8,2295.2,1357.7z"/>
		<path class="st1" d="M2301,921.4c0.6,3.2,1.1,6.3,1.7,9.5C2302.1,927.8,2301.5,924.6,2301,921.4z"/>
		<path class="st3" d="M2301,921.4c0.6,3.2,1.1,6.3,1.7,9.5C2302.1,927.8,2301.5,924.6,2301,921.4z"/>
		<path class="st1" d="M2292.5,1370.2c0-0.1,0-0.2,0.1-0.3C2292.5,1370,2292.5,1370.1,2292.5,1370.2z"/>
		<path class="st3" d="M2292.5,1370.2c0-0.1,0-0.2,0.1-0.3C2292.5,1370,2292.5,1370.1,2292.5,1370.2z"/>
		<path class="st1" d="M2233.3,692.3c-0.1-0.2-0.2-0.5-0.3-0.7c-0.6-1.4-1.2-2.8-1.8-4.3c0-0.1-0.1-0.2-0.1-0.4
			C2231.8,688.8,2232.5,690.6,2233.3,692.3z"/>
		<path class="st3" d="M2233.3,692.3c-0.1-0.2-0.2-0.5-0.3-0.7c-0.6-1.4-1.2-2.8-1.8-4.3c0-0.1-0.1-0.2-0.1-0.4
			C2231.8,688.8,2232.5,690.6,2233.3,692.3z"/>
		<path class="st1" d="M2264.8,777.9c0.8,2.5,1.6,5,2.4,7.6C2266.4,783,2265.6,780.4,2264.8,777.9z"/>
		<path class="st3" d="M2264.8,777.9c0.8,2.5,1.6,5,2.4,7.6C2266.4,783,2265.6,780.4,2264.8,777.9z"/>
		<path class="st1" d="M1944.5,459.3c27.3,89,15.9,121-6.2,131.3c56.3,137.2,92.4,306.1,94.1,513.7c1.4,168.2-20,312-56.9,435
			c119.8-32.8,118.1,40.8,153.5,14.9c36.2-26.4-11.1-79.3,22.6-130.8c33.5-51.2,144.1-73.1,145.1-73.3c4.9-24,9-48.1,12.3-72.3
			c4.3-31.4,7.3-63,8.9-94.6c0-0.7,0.1-1.4,0.1-2.1c0.2-3.6,0.3-7.3,0.5-10.9c0.1-1.7,0.1-3.3,0.2-5c0.1-2.7,0.2-5.5,0.3-8.2
			c0.1-2.9,0.1-5.8,0.2-8.7c0-1.6,0.1-3.2,0.1-4.8c0.2-9.4,0.2-18.9,0.1-28.3c-0.1-9.5-0.3-19-0.6-28.4c0-1.5-0.1-2.9-0.2-4.4
			c-0.1-3-0.2-6.1-0.4-9.1c-0.1-2.6-0.3-5.2-0.4-7.8c-0.1-1.8-0.2-3.7-0.3-5.5c-0.2-3.5-0.4-7-0.7-10.4c-0.1-0.8-0.1-1.7-0.2-2.5
			c-2.7-38.6-7.3-77-13.9-115.2c-0.4-0.5-78.1-106.8-144.1-109.9c-66.2-3.1-190.8,20.9-128.3-126.1
			c61.1-143.5,132.4-138.5,135.7-138.2c-41.3-70.7-90.1-136.4-145.3-196.1c-0.2-0.3-0.5-0.5-0.7-0.8c-2.8-3-5.5-5.9-8.3-8.9
			c-0.8-0.8-1.6-1.7-2.4-2.5c-2.3-2.4-4.6-4.8-6.9-7.2c-1.5-1.5-3-3.1-4.5-4.6c-1.7-1.7-3.4-3.5-5.1-5.2c-3.2-3.2-6.5-6.5-9.7-9.7
			c0,0-0.1-0.1-0.1-0.1C1983.1,322.6,1896.3,302.1,1944.5,459.3z"/>
		<path class="st3" d="M1944.5,459.3c27.3,89,15.9,121-6.2,131.3c56.3,137.2,92.4,306.1,94.1,513.7c1.4,168.2-20,312-56.9,435
			c119.8-32.8,118.1,40.8,153.5,14.9c36.2-26.4-11.1-79.3,22.6-130.8c33.5-51.2,144.1-73.1,145.1-73.3c4.9-24,9-48.1,12.3-72.3
			c4.3-31.4,7.3-63,8.9-94.6c0-0.7,0.1-1.4,0.1-2.1c0.2-3.6,0.3-7.3,0.5-10.9c0.1-1.7,0.1-3.3,0.2-5c0.1-2.7,0.2-5.5,0.3-8.2
			c0.1-2.9,0.1-5.8,0.2-8.7c0-1.6,0.1-3.2,0.1-4.8c0.2-9.4,0.2-18.9,0.1-28.3c-0.1-9.5-0.3-19-0.6-28.4c0-1.5-0.1-2.9-0.2-4.4
			c-0.1-3-0.2-6.1-0.4-9.1c-0.1-2.6-0.3-5.2-0.4-7.8c-0.1-1.8-0.2-3.7-0.3-5.5c-0.2-3.5-0.4-7-0.7-10.4c-0.1-0.8-0.1-1.7-0.2-2.5
			c-2.7-38.6-7.3-77-13.9-115.2c-0.4-0.5-78.1-106.8-144.1-109.9c-66.2-3.1-190.8,20.9-128.3-126.1
			c61.1-143.5,132.4-138.5,135.7-138.2c-41.3-70.7-90.1-136.4-145.3-196.1c-0.2-0.3-0.5-0.5-0.7-0.8c-2.8-3-5.5-5.9-8.3-8.9
			c-0.8-0.8-1.6-1.7-2.4-2.5c-2.3-2.4-4.6-4.8-6.9-7.2c-1.5-1.5-3-3.1-4.5-4.6c-1.7-1.7-3.4-3.5-5.1-5.2c-3.2-3.2-6.5-6.5-9.7-9.7
			c0,0-0.1-0.1-0.1-0.1C1983.1,322.6,1896.3,302.1,1944.5,459.3z"/>
		<path class="st1" d="M1389.4,16.9c4.4,0.8,8.8,1.6,13.2,2.4C1398.2,18.5,1393.8,17.7,1389.4,16.9z"/>
		<path class="st3" d="M1389.4,16.9c4.4,0.8,8.8,1.6,13.2,2.4C1398.2,18.5,1393.8,17.7,1389.4,16.9z"/>
		<path class="st1" d="M2287.7,859.1c0.8,3.3,1.6,6.7,2.4,10.1C2289.3,865.8,2288.5,862.4,2287.7,859.1z"/>
		<path class="st3" d="M2287.7,859.1c0.8,3.3,1.6,6.7,2.4,10.1C2289.3,865.8,2288.5,862.4,2287.7,859.1z"/>
		<path class="st1" d="M2275.7,813.7c0.9,3.1,1.8,6.1,2.6,9.2C2277.5,819.8,2276.6,816.8,2275.7,813.7z"/>
		<path class="st3" d="M2275.7,813.7c0.9,3.1,1.8,6.1,2.6,9.2C2277.5,819.8,2276.6,816.8,2275.7,813.7z"/>
		<path class="st1" d="M2278.5,823.5c3.2,11.7,6.3,23.5,9.2,35.3C2284.8,847,2281.7,835.2,2278.5,823.5z"/>
		<path class="st3" d="M2278.5,823.5c3.2,11.7,6.3,23.5,9.2,35.3C2284.8,847,2281.7,835.2,2278.5,823.5z"/>
		<path class="st1" d="M2272.3,802.1c0.8,2.8,1.6,5.5,2.4,8.3C2274,807.6,2273.2,804.9,2272.3,802.1z"/>
		<path class="st3" d="M2272.3,802.1c0.8,2.8,1.6,5.5,2.4,8.3C2274,807.6,2273.2,804.9,2272.3,802.1z"/>
		<path class="st1" d="M2268.7,790.1c0.8,2.6,1.6,5.2,2.4,7.8C2270.3,795.3,2269.5,792.7,2268.7,790.1z"/>
		<path class="st3" d="M2268.7,790.1c0.8,2.6,1.6,5.2,2.4,7.8C2270.3,795.3,2269.5,792.7,2268.7,790.1z"/>
		<path class="st1" d="M2290.7,871.6c0.7,3.1,1.4,6.3,2.1,9.4C2292.1,877.8,2291.4,874.7,2290.7,871.6z"/>
		<path class="st3" d="M2290.7,871.6c0.7,3.1,1.4,6.3,2.1,9.4C2292.1,877.8,2291.4,874.7,2290.7,871.6z"/>
		<path class="st1" d="M2296.1,896.6c0.6,3,1.2,6.1,1.8,9.1C2297.4,902.7,2296.8,899.6,2296.1,896.6z"/>
		<path class="st3" d="M2296.1,896.6c0.6,3,1.2,6.1,1.8,9.1C2297.4,902.7,2296.8,899.6,2296.1,896.6z"/>
		<path class="st1" d="M2293.5,884.1c0.7,3,1.3,6.1,1.9,9.1C2294.8,890.2,2294.2,887.2,2293.5,884.1z"/>
		<path class="st3" d="M2293.5,884.1c0.7,3,1.3,6.1,1.9,9.1C2294.8,890.2,2294.2,887.2,2293.5,884.1z"/>
		<path class="st1" d="M2250.1,1514.3c0.1-0.4,0.3-0.7,0.4-1.1C2250.4,1513.6,2250.3,1514,2250.1,1514.3z"/>
		<path class="st3" d="M2250.1,1514.3c0.1-0.4,0.3-0.7,0.4-1.1C2250.4,1513.6,2250.3,1514,2250.1,1514.3z"/>
		<path class="st1" d="M2255,1500.9c0.1-0.3,0.2-0.6,0.3-0.9C2255.2,1500.4,2255.1,1500.6,2255,1500.9z"/>
		<path class="st3" d="M2255,1500.9c0.1-0.3,0.2-0.6,0.3-0.9C2255.2,1500.4,2255.1,1500.6,2255,1500.9z"/>
		<path class="st1" d="M2271.6,1450.1c0.2-0.7,0.4-1.3,0.6-2C2272,1448.8,2271.8,1449.4,2271.6,1450.1z"/>
		<path class="st3" d="M2271.6,1450.1c0.2-0.7,0.4-1.3,0.6-2C2272,1448.8,2271.8,1449.4,2271.6,1450.1z"/>
		<path class="st1" d="M2245.3,1527.2c0.3-0.7,0.5-1.3,0.8-2C2245.8,1525.9,2245.5,1526.6,2245.3,1527.2z"/>
		<path class="st3" d="M2245.3,1527.2c0.3-0.7,0.5-1.3,0.8-2C2245.8,1525.9,2245.5,1526.6,2245.3,1527.2z"/>
		<path class="st1" d="M2267.8,1462.5c0.2-0.6,0.4-1.2,0.6-1.8C2268.2,1461.3,2268,1461.9,2267.8,1462.5z"/>
		<path class="st3" d="M2267.8,1462.5c0.2-0.6,0.4-1.2,0.6-1.8C2268.2,1461.3,2268,1461.9,2267.8,1462.5z"/>
		<path class="st1" d="M2279.2,1423.8c0.2-0.8,0.4-1.6,0.7-2.4C2279.6,1422.2,2279.4,1423,2279.2,1423.8z"/>
		<path class="st3" d="M2279.2,1423.8c0.2-0.8,0.4-1.6,0.7-2.4C2279.6,1422.2,2279.4,1423,2279.2,1423.8z"/>
		<path class="st1" d="M2259.1,1488.9c0.2-0.7,0.5-1.4,0.7-2.1C2259.6,1487.5,2259.4,1488.2,2259.1,1488.9z"/>
		<path class="st3" d="M2259.1,1488.9c0.2-0.7,0.5-1.4,0.7-2.1C2259.6,1487.5,2259.4,1488.2,2259.1,1488.9z"/>
		<path class="st2" d="M2016.3,1893c94.7-101.3,170.9-220.1,223.2-351c0.2-0.5,0.4-1,0.6-1.4c1.4-3.6,2.8-7.1,4.2-10.7
			c0.3-0.9,0.7-1.7,1-2.6c0.3-0.7,0.5-1.3,0.8-2c0.3-0.8,0.6-1.6,0.9-2.3c0.4-1,0.7-1.9,1.1-2.9c0.7-1.9,1.4-3.8,2.1-5.7
			c0.1-0.4,0.3-0.7,0.4-1.1c1.5-4.1,3-8.2,4.4-12.3c0.1-0.3,0.2-0.6,0.3-0.9c1.3-3.7,2.6-7.4,3.9-11.1c0.2-0.7,0.5-1.4,0.7-2.1
			c2.7-8.1,5.4-16.2,7.9-24.3c0.2-0.6,0.4-1.2,0.6-1.8c1.1-3.5,2.2-7,3.2-10.6c0.2-0.7,0.4-1.3,0.6-2c2.4-8.1,4.7-16.2,7-24.3
			c0.2-0.8,0.4-1.6,0.7-2.4c0.1-0.2,0.1-0.4,0.2-0.6c0.9-3.4,1.8-6.7,2.7-10.1c0.1-0.5,0.3-1,0.4-1.5c1.1-4.1,2.1-8.2,3.1-12.3
			c0.1-0.5,0.3-1,0.4-1.6c0.9-3.5,1.7-7.1,2.6-10.6c0.2-0.9,0.4-1.8,0.6-2.7c0.9-3.9,1.8-7.8,2.7-11.7c0-0.1,0-0.2,0.1-0.3
			c0.9-4.1,1.8-8.1,2.6-12.2c0.2-0.9,0.4-1.8,0.6-2.7c0.3-1.6,0.7-3.3,1-4.9c0,0,0,0,0,0c-1,0.2-111.6,22.1-145.1,73.3
			c-33.7,51.4,13.6,104.3-22.6,130.8c-35.4,25.9-33.7-47.6-153.5-14.9c-33.5,111.6-79.6,206-132.9,285.8
			c63.6,53.7,154.1,88.3,154.1,88.3v0c0.1-0.1,0.2-0.2,0.3-0.3c2.8-2.8,5.6-5.7,8.3-8.6c0.2-0.2,0.3-0.3,0.5-0.5
			c0.6-0.7,1.2-1.3,1.9-2c2.2-2.3,4.5-4.7,6.7-7c0.3-0.3,0.6-0.7,0.9-1C2015.7,1893.7,2016,1893.3,2016.3,1893z"/>
		<path class="st3" d="M2016.3,1893c94.7-101.3,170.9-220.1,223.2-351c0.2-0.5,0.4-1,0.6-1.4c1.4-3.6,2.8-7.1,4.2-10.7
			c0.3-0.9,0.7-1.7,1-2.6c0.3-0.7,0.5-1.3,0.8-2c0.3-0.8,0.6-1.6,0.9-2.3c0.4-1,0.7-1.9,1.1-2.9c0.7-1.9,1.4-3.8,2.1-5.7
			c0.1-0.4,0.3-0.7,0.4-1.1c1.5-4.1,3-8.2,4.4-12.3c0.1-0.3,0.2-0.6,0.3-0.9c1.3-3.7,2.6-7.4,3.9-11.1c0.2-0.7,0.5-1.4,0.7-2.1
			c2.7-8.1,5.4-16.2,7.9-24.3c0.2-0.6,0.4-1.2,0.6-1.8c1.1-3.5,2.2-7,3.2-10.6c0.2-0.7,0.4-1.3,0.6-2c2.4-8.1,4.7-16.2,7-24.3
			c0.2-0.8,0.4-1.6,0.7-2.4c0.1-0.2,0.1-0.4,0.2-0.6c0.9-3.4,1.8-6.7,2.7-10.1c0.1-0.5,0.3-1,0.4-1.5c1.1-4.1,2.1-8.2,3.1-12.3
			c0.1-0.5,0.3-1,0.4-1.6c0.9-3.5,1.7-7.1,2.6-10.6c0.2-0.9,0.4-1.8,0.6-2.7c0.9-3.9,1.8-7.8,2.7-11.7c0-0.1,0-0.2,0.1-0.3
			c0.9-4.1,1.8-8.1,2.6-12.2c0.2-0.9,0.4-1.8,0.6-2.7c0.3-1.6,0.7-3.3,1-4.9c0,0,0,0,0,0c-1,0.2-111.6,22.1-145.1,73.3
			c-33.7,51.4,13.6,104.3-22.6,130.8c-35.4,25.9-33.7-47.6-153.5-14.9c-33.5,111.6-79.6,206-132.9,285.8
			c63.6,53.7,154.1,88.3,154.1,88.3v0c0.1-0.1,0.2-0.2,0.3-0.3c2.8-2.8,5.6-5.7,8.3-8.6c0.2-0.2,0.3-0.3,0.5-0.5
			c0.6-0.7,1.2-1.3,1.9-2c2.2-2.3,4.5-4.7,6.7-7c0.3-0.3,0.6-0.7,0.9-1C2015.7,1893.7,2016,1893.3,2016.3,1893z"/>
		<path class="st2" d="M2302.7,930.9c-0.6-3.2-1.1-6.3-1.7-9.5c-0.2-1.1-0.4-2.1-0.6-3.2c-0.6-3.1-1.2-6.1-1.8-9.2
			c-0.2-1.1-0.4-2.2-0.7-3.4c-0.6-3-1.2-6.1-1.8-9.1c-0.2-1.1-0.5-2.2-0.7-3.4c-0.6-3-1.3-6.1-1.9-9.1c-0.2-1-0.5-2.1-0.7-3.1
			c-0.7-3.1-1.4-6.3-2.1-9.4c-0.2-0.8-0.4-1.6-0.6-2.5c-0.8-3.4-1.6-6.7-2.4-10.1c0-0.1,0-0.2-0.1-0.3c-2.9-11.8-5.9-23.6-9.2-35.3
			c0-0.2-0.1-0.4-0.1-0.5c-0.9-3.1-1.7-6.1-2.6-9.2c-0.3-1.1-0.6-2.2-1-3.3c-0.8-2.8-1.6-5.5-2.4-8.3c-0.4-1.4-0.8-2.8-1.3-4.2
			c-0.8-2.6-1.6-5.2-2.4-7.8c-0.5-1.5-1-3.1-1.4-4.6c-0.8-2.5-1.6-5-2.4-7.6c-0.5-1.6-1-3.2-1.6-4.8c-0.8-2.5-1.6-4.9-2.5-7.4
			c-0.6-1.6-1.1-3.3-1.7-4.9c-0.8-2.4-1.7-4.9-2.5-7.3c-0.6-1.7-1.2-3.3-1.8-5c-0.9-2.4-1.7-4.8-2.6-7.2c-0.6-1.7-1.2-3.3-1.8-5
			c-0.9-2.4-1.8-4.8-2.7-7.2c-0.6-1.6-1.2-3.2-1.8-4.9c-0.9-2.4-1.9-4.9-2.8-7.3c-0.6-1.5-1.1-2.9-1.7-4.4c-2.2-5.5-4.4-11-6.6-16.5
			c-0.5-1.2-1-2.4-1.5-3.7c-0.7-1.8-1.5-3.6-2.2-5.3c-1.1-2.7-2.3-5.4-3.4-8c-0.3-0.8-0.7-1.5-1-2.3c-17.8-41-38-80.8-60.4-119
			c-3.3-0.3-74.6-5.3-135.7,138.2c-62.6,146.9,62,122.9,128.3,126.1c66,3.1,143.7,109.4,144.1,109.9c0,0,0,0,0,0
			C2302.8,931.5,2302.7,931.2,2302.7,930.9z"/>
		<path class="st3" d="M2302.7,930.9c-0.6-3.2-1.1-6.3-1.7-9.5c-0.2-1.1-0.4-2.1-0.6-3.2c-0.6-3.1-1.2-6.1-1.8-9.2
			c-0.2-1.1-0.4-2.2-0.7-3.4c-0.6-3-1.2-6.1-1.8-9.1c-0.2-1.1-0.5-2.2-0.7-3.4c-0.6-3-1.3-6.1-1.9-9.1c-0.2-1-0.5-2.1-0.7-3.1
			c-0.7-3.1-1.4-6.3-2.1-9.4c-0.2-0.8-0.4-1.6-0.6-2.5c-0.8-3.4-1.6-6.7-2.4-10.1c0-0.1,0-0.2-0.1-0.3c-2.9-11.8-5.9-23.6-9.2-35.3
			c0-0.2-0.1-0.4-0.1-0.5c-0.9-3.1-1.7-6.1-2.6-9.2c-0.3-1.1-0.6-2.2-1-3.3c-0.8-2.8-1.6-5.5-2.4-8.3c-0.4-1.4-0.8-2.8-1.3-4.2
			c-0.8-2.6-1.6-5.2-2.4-7.8c-0.5-1.5-1-3.1-1.4-4.6c-0.8-2.5-1.6-5-2.4-7.6c-0.5-1.6-1-3.2-1.6-4.8c-0.8-2.5-1.6-4.9-2.5-7.4
			c-0.6-1.6-1.1-3.3-1.7-4.9c-0.8-2.4-1.7-4.9-2.5-7.3c-0.6-1.7-1.2-3.3-1.8-5c-0.9-2.4-1.7-4.8-2.6-7.2c-0.6-1.7-1.2-3.3-1.8-5
			c-0.9-2.4-1.8-4.8-2.7-7.2c-0.6-1.6-1.2-3.2-1.8-4.9c-0.9-2.4-1.9-4.9-2.8-7.3c-0.6-1.5-1.1-2.9-1.7-4.4c-2.2-5.5-4.4-11-6.6-16.5
			c-0.5-1.2-1-2.4-1.5-3.7c-0.7-1.8-1.5-3.6-2.2-5.3c-1.1-2.7-2.3-5.4-3.4-8c-0.3-0.8-0.7-1.5-1-2.3c-17.8-41-38-80.8-60.4-119
			c-3.3-0.3-74.6-5.3-135.7,138.2c-62.6,146.9,62,122.9,128.3,126.1c66,3.1,143.7,109.4,144.1,109.9c0,0,0,0,0,0
			C2302.8,931.5,2302.7,931.2,2302.7,930.9z"/>
		<path class="st2" d="M1604.3,77c-1.5-0.6-3.1-1.2-4.6-1.8c-3-1.2-6-2.3-9.1-3.4c-1.5-0.5-2.9-1.1-4.4-1.6
			c-3.2-1.2-6.4-2.3-9.5-3.5c-1.3-0.5-2.6-0.9-3.9-1.4c-3.5-1.2-7-2.4-10.4-3.7c-1-0.4-2-0.7-3.1-1.1c-4.1-1.4-8.3-2.8-12.5-4.2
			c-0.4-0.1-0.7-0.2-1.1-0.4c-13.9-4.6-27.9-8.8-41.9-12.8c-0.7-0.2-1.3-0.4-2-0.6c-3.9-1.1-7.8-2.2-11.8-3.3c-1-0.3-2-0.5-3-0.8
			c-3.6-1-7.2-1.9-10.8-2.8c-1.2-0.3-2.3-0.6-3.5-0.9c-3.5-0.9-7-1.8-10.4-2.6c-1.2-0.3-2.5-0.6-3.7-0.9c-3.5-0.8-6.9-1.6-10.4-2.4
			c-1.2-0.3-2.5-0.6-3.7-0.8c-3.5-0.8-7-1.6-10.5-2.3c-1.2-0.3-2.3-0.5-3.5-0.8c-3.6-0.8-7.3-1.5-10.9-2.3c-1-0.2-2.1-0.4-3.1-0.6
			c-3.9-0.8-7.8-1.5-11.7-2.3c-0.8-0.1-1.5-0.3-2.3-0.4c-4.4-0.8-8.8-1.6-13.2-2.4c-0.3,0-0.5-0.1-0.8-0.1
			c-19.2-3.3-38.5-6.2-57.8-8.5c-0.2,0-0.4,0-0.5-0.1c-4.5-0.5-9.1-1.1-13.7-1.6c-0.6-0.1-1.1-0.1-1.7-0.2
			c-4.2-0.4-8.3-0.9-12.5-1.3c-0.8-0.1-1.5-0.1-2.3-0.2c-4-0.4-8-0.7-12-1.1c-0.8-0.1-1.7-0.1-2.5-0.2c-4-0.3-8-0.6-11.9-0.9
			c-0.8-0.1-1.6-0.1-2.5-0.2c-4-0.3-8.1-0.5-12.1-0.8c-0.7,0-1.4-0.1-2.2-0.1c-4.2-0.2-8.5-0.4-12.7-0.6c-0.5,0-1,0-1.6-0.1
			c-4.6-0.2-9.2-0.4-13.8-0.5c-0.1,0-0.3,0-0.4,0c-14.4-0.4-28.8-0.6-43.3-0.5c5.1,0.5,153.2,16.4,324.1,109.3
			c26.7-18.9,108.6,23,205.6,67.9c108.4,50.2,160.8,206,151.4,264.3c-0.3,1.6-0.5,3.2-0.8,4.8c26.8,43.7,51.3,91.7,72.9,144.3
			c22-10.3,33.4-42.3,6.2-131.3c-48.2-157.2,38.6-136.7,38.6-136.7c0,0,0,0,0,0c-3.5-3.4-7-6.8-10.5-10.2c-1.4-1.3-2.8-2.7-4.2-4
			c-2.1-2-4.1-3.9-6.2-5.8c-1.9-1.8-3.8-3.5-5.7-5.2c-1.5-1.4-3-2.8-4.6-4.2c-2.3-2.1-4.6-4.2-6.9-6.3c-1-0.9-1.9-1.7-2.9-2.6
			c-2.8-2.5-5.7-5-8.5-7.5c0,0-0.1-0.1-0.1-0.1c-84.7-73.9-180.6-135.2-284.7-181.2c-0.1,0-0.2-0.1-0.3-0.1
			c-3.6-1.6-7.1-3.1-10.7-4.6c-1.3-0.5-2.6-1.1-3.8-1.6c-2.6-1.1-5.2-2.2-7.8-3.3c-2.5-1-5.1-2.1-7.6-3.1c-1.5-0.6-3-1.2-4.5-1.8
			c-0.3-0.1-0.7-0.3-1-0.4C1610.2,79.3,1607.3,78.1,1604.3,77z"/>
		<path class="st3" d="M1604.3,77c-1.5-0.6-3.1-1.2-4.6-1.8c-3-1.2-6-2.3-9.1-3.4c-1.5-0.5-2.9-1.1-4.4-1.6
			c-3.2-1.2-6.4-2.3-9.5-3.5c-1.3-0.5-2.6-0.9-3.9-1.4c-3.5-1.2-7-2.4-10.4-3.7c-1-0.4-2-0.7-3.1-1.1c-4.1-1.4-8.3-2.8-12.5-4.2
			c-0.4-0.1-0.7-0.2-1.1-0.4c-13.9-4.6-27.9-8.8-41.9-12.8c-0.7-0.2-1.3-0.4-2-0.6c-3.9-1.1-7.8-2.2-11.8-3.3c-1-0.3-2-0.5-3-0.8
			c-3.6-1-7.2-1.9-10.8-2.8c-1.2-0.3-2.3-0.6-3.5-0.9c-3.5-0.9-7-1.8-10.4-2.6c-1.2-0.3-2.5-0.6-3.7-0.9c-3.5-0.8-6.9-1.6-10.4-2.4
			c-1.2-0.3-2.5-0.6-3.7-0.8c-3.5-0.8-7-1.6-10.5-2.3c-1.2-0.3-2.3-0.5-3.5-0.8c-3.6-0.8-7.3-1.5-10.9-2.3c-1-0.2-2.1-0.4-3.1-0.6
			c-3.9-0.8-7.8-1.5-11.7-2.3c-0.8-0.1-1.5-0.3-2.3-0.4c-4.4-0.8-8.8-1.6-13.2-2.4c-0.3,0-0.5-0.1-0.8-0.1
			c-19.2-3.3-38.5-6.2-57.8-8.5c-0.2,0-0.4,0-0.5-0.1c-4.5-0.5-9.1-1.1-13.7-1.6c-0.6-0.1-1.1-0.1-1.7-0.2
			c-4.2-0.4-8.3-0.9-12.5-1.3c-0.8-0.1-1.5-0.1-2.3-0.2c-4-0.4-8-0.7-12-1.1c-0.8-0.1-1.7-0.1-2.5-0.2c-4-0.3-8-0.6-11.9-0.9
			c-0.8-0.1-1.6-0.1-2.5-0.2c-4-0.3-8.1-0.5-12.1-0.8c-0.7,0-1.4-0.1-2.2-0.1c-4.2-0.2-8.5-0.4-12.7-0.6c-0.5,0-1,0-1.6-0.1
			c-4.6-0.2-9.2-0.4-13.8-0.5c-0.1,0-0.3,0-0.4,0c-14.4-0.4-28.8-0.6-43.3-0.5c5.1,0.5,153.2,16.4,324.1,109.3
			c26.7-18.9,108.6,23,205.6,67.9c108.4,50.2,160.8,206,151.4,264.3c-0.3,1.6-0.5,3.2-0.8,4.8c26.8,43.7,51.3,91.7,72.9,144.3
			c22-10.3,33.4-42.3,6.2-131.3c-48.2-157.2,38.6-136.7,38.6-136.7c0,0,0,0,0,0c-3.5-3.4-7-6.8-10.5-10.2c-1.4-1.3-2.8-2.7-4.2-4
			c-2.1-2-4.1-3.9-6.2-5.8c-1.9-1.8-3.8-3.5-5.7-5.2c-1.5-1.4-3-2.8-4.6-4.2c-2.3-2.1-4.6-4.2-6.9-6.3c-1-0.9-1.9-1.7-2.9-2.6
			c-2.8-2.5-5.7-5-8.5-7.5c0,0-0.1-0.1-0.1-0.1c-84.7-73.9-180.6-135.2-284.7-181.2c-0.1,0-0.2-0.1-0.3-0.1
			c-3.6-1.6-7.1-3.1-10.7-4.6c-1.3-0.5-2.6-1.1-3.8-1.6c-2.6-1.1-5.2-2.2-7.8-3.3c-2.5-1-5.1-2.1-7.6-3.1c-1.5-0.6-3-1.2-4.5-1.8
			c-0.3-0.1-0.7-0.3-1-0.4C1610.2,79.3,1607.3,78.1,1604.3,77z"/>
	</g>
</g>
<g>
	<path class="st4" d="M1199.2,725.5c-17.3-37.3-21.8-45.2-30.6-53.8c-5.4-5-12.1-12.7-15.3-16.9c-3.8-5.3-9.8-10.4-18.4-15.3
		c-13.1-7.6-13.5-7.7-51.3-9.7c-7.8-0.3-31,7.3-44.1,14.7c-3.2,1.8-12.1,6.9-19.5,10.9l-13.4,7.9l-3.3,5.9
		c-1,10.3-2.7,20.7-5.5,31.2c-24.8,94-4.6,125,21.2,167.3c25.8,42.3,107.3,56.9,83.6,132.9c-23.7,76-10.3,125.9,11.4,118.2
		c21.7-7.8,51.2-107.3,30.9-161.1c-20.4-53.8-74.5-73.2-65.1-137.2c9.4-64,96.1-54.8,131.8-39.5c1.9,0.8,3.8,1.7,5.7,2.8
		c-0.9-3.3-1.8-6.9-2.9-10.8C1208.4,752.2,1201.6,731,1199.2,725.5z"/>
	<path class="st4" d="M1113.3,1212.8c-3.6,3.3-11,8.3-16.3,11.3c-5.5,2.9-10.5,6.1-11.2,7.4c-0.7,1.3-6.3,4.4-12.4,7
		c-6.1,2.6-14.2,7.2-17.7,10c-3.8,2.9-9.5,6.2-13,7.1c-6.6,2.1-23.9,11.8-36.4,20.5c-4.5,6-8.4,12.1-11.9,18
		c-47.6,82.8-1.4,167.6-18,213.2c-4.7,12.9-20.2,30.8-41,50.5c0.7,0.5,1.5,0.9,2.2,1.3c9,5.1,12.3,8.9,25.1,27.7
		c7.9,12,15.6,24.5,16.9,27.7c1.3,3.2,4.5,7.4,6.8,9.7c2.6,2.2,6.2,8.6,8.2,14.1c2.2,5.6,5.8,13.2,8.3,17c8.7,13.2,16.9,32,21,48.1
		c2.3,8.8,6.4,20.8,9.3,26.3c2.8,5.7,7.2,17.1,9.8,25.4c4.2,13,9.3,25.3,15.6,37.7c85-13.1,192.1-36.3,266.3-55.5
		c0.4-0.1,0.8-0.2,1.2-0.3c3.8-21,6.3-38.3,5.5-41.6c-1.2-6-0.4-25.3,1.4-34.9c2.4-11.9,3.3-33.1,1.5-42.4c-0.8-4.6-1-12.7-0.4-18.1
		c1.2-12.8-4.8-61.9-8.7-67.7c-1.5-2.5-5.7-14.3-9.2-26.5c-3.5-12.1-11.4-31.8-17.2-43.8c-6-12.1-11.6-26.4-12.6-32
		c-1.7-10.2-1.5-10.5,10.3-31.4c10.6-18.7,12.4-21,17-21.5c5.7-0.6,7.7,1,8.1,6.5c0,2.9-2.5,6.6-9.1,12.7
		c-13.8,12.9-14.8,18.4-7.8,44.4c3.6,13.2,8,24.3,10.7,26.8c2.5,2.4,7.1,7.9,10.3,12.1c3.1,4.4,9,10.9,13.2,14.7
		c4.1,3.8,8.8,8.8,10.3,11.2c4.4,6.8,13.3,38.7,14.3,51.1c0.3,6.2,1.5,14.4,2.3,18.2c0.9,3.9,1,9.3,0.3,12.3
		c-1.4,5.9-0.4,25.1,2.1,41.1c1,5.9,1.4,15.5,1.2,21.4c-0.2,5.9,0.3,12.7,1.3,15.2c0.8,2.4,1.1,9.6,0.5,15.7
		c-0.5,6.5-0.2,13.9,0.7,17.1c1.2,3.1,1,10.2-0.2,16.1c-0.4,1.9-0.7,4.4-0.9,7c68.2-33.9,66.9-90.7,23.3-157.2
		c-51.8-79.1-43.5-99.1-49.8-178.6c-6.4-79.5-83.9-172.6-83.9-172.6c-22.4-35.7-56.8-45.9-93.9-40.6c-14,13.3-30.3,27-37.9,30.8
		C1123.8,1205,1116.8,1209.7,1113.3,1212.8z"/>
	<path class="st4" d="M945.3,1719.8c-3.5-9.7-8.7-21.8-11.9-26.8c-3.1-5.1-7.8-12.6-10.3-16.4c-2.3-4-7.1-11-10.5-15.6
		c-3.4-4.6-11.2-17.7-17.4-28.9l-11.2-20.8l-6.8-3.9c-44.9,35.7-93.3,69.6-118.1,86.5c-50.8,34.5-161.3,72.4-177.4,180.5
		c-16.1,108.1,51.8,79.1,51.8,79.1c-14.7-59.6,24.8-88.3,98.3-128.7c73.5-40.4,147.5-24,218.5-21.8c8.8,0.3,19.3-0.1,31.4-0.9
		c-3.1-5.5-7-12.8-12.4-22.9C960.5,1762.5,957.5,1755,945.3,1719.8z"/>
	<path class="st1" d="M2032.5,1104.3c-1.8-207.6-37.8-376.4-94.1-513.7c-16.9,7.9-40,3-56.6,1.3c-37.3-3.8-25.6-87.4-16.3-145.6
		c-101.6-166-234.7-271-356.2-337c-3.1,2.2-5.5,5.3-7.1,9.2c-14.8,37.9,173.4,121.5,222.2,175.1c48.8,53.5,0.6,68.2-84.7,57.5
		c-85.3-10.6-136.1,29.6-112.7,108.9c23.4,79.3,83.6,144.2,114.8,141.1c31.2-3.1,100.9-154.3,150.5-9.8
		c49.5,144.4,101.6,252-49,244.7c-150.6-7.2-321.2-17.1-369.1,25.9c-47.9,43-53,111.3-73,97.2c-4.5-3.2-7.7-7.5-9.9-12.6
		c-3.8,22.6-4.9,26.6-12.3,51c-3.3,11.4-7,25.5-8,31.7c-2.9,17.5-24.1,53.3-42.6,72.2c-7.9,8.1-15.4,16.6-16.8,19
		c-1.2,2.2-5.5,6.8-9.3,10c-3.7,3.2-9.3,10.4-12.6,15.8c-3,5.3-12.2,15.2-22.8,25.4c37.1-5.3,71.5,4.9,93.9,40.6
		c0,0,77.5,93.1,83.9,172.6c6.4,79.5-2,99.5,49.8,178.6c43.6,66.5,44.9,123.4-23.3,157.2c-0.4,5.3-0.5,11.5-0.1,16.1
		c1.4,15.5-5.4,54.4-11.5,65c-2.5,4.4-4.9,10.8-5.4,14.3c-2.3,16.8-35.4,83.4-48.9,98.7c-13.1,14.6-38,36.9-47.3,42.5
		c-12.3,7.3-31.3,10.5-48.6,8.2c-30.6-4-49.8-7.7-54.7-10.4c-2.7-1.6-12.3-4.3-21.1-5.9c-22.3-4.2-45.1-17.1-64-36.2
		c-7.5-7.6-17.7-16.1-22.5-18.8c-6.8-3.8-10.1-7.7-15-17c-3.5-6.6-9.7-15.7-13.9-20.2c-4.1-4.7-9.9-13.3-12.7-19.3
		c-3.1-6.1-8-13.7-11-16.9c-3.8-4.2-6.6-8.1-12.6-18.8c-12,0.9-22.6,1.2-31.4,0.9c-71-2.2-145-18.6-218.5,21.8
		c-73.5,40.4-113,69.1-98.3,128.7c0,0-67.9,29-51.8-79.1c16.1-108.1,126.6-146,177.4-180.5c24.8-16.8,73.1-50.8,118.1-86.5
		l-22.5-12.7c-27.7-15.9-29.8-16.9-39.9-17c-6,0-16.3-0.6-23.4-0.9c-8.8-0.6-22.5,2.2-48.2,9.7c-29.1,8.4-37.6,11.8-45.3,18.1
		c-5.1,4.3-14.6,9.6-20.8,11.6c-12.6,4-18.9,7.9-32.6,19.2c-5.1,4.3-12.8,9.4-17.3,11.4c-4.5,2-9,5.3-10.3,7.5
		c-2.9,5.1-25.3,25-30.2,26.9c-3.7,1.5-23.3,28.3-32.7,45c-8.4,14.8-13.3,30.7-11.7,37.3c0.8,3.4-116.7,147.1-129.7,170
		c220.6,213.5,506.6,318.7,791.6,316.2c2.1-0.3,394.6-59.1,638.4-424.5c-12.9-10.9-24.8-22.7-34.5-35.1
		c-57.5-73.3,32.3-210.5,159.8-248.5c2.6-0.8,5.1-1.5,7.6-2.2C2012.5,1416.3,2034,1272.5,2032.5,1104.3z"/>
	<path class="st1" d="M1204.6,2249.6c4.6,0,9.2-0.1,13.8-0.2C1213.8,2249.5,1209.2,2249.6,1204.6,2249.6z"/>
	<path class="st1" d="M1079.3,1831.7c4.6,9.4,13.3,22.2,18.9,28.6c5.9,6.2,12.9,15.5,16.1,20.7c4.1,7.2,9.4,12.1,21.2,20.2
		c8.7,5.9,19,13.4,23.1,16.4c18.6,14.4,55.2,12.6,74.8-4c5.3-4.2,13.6-9.9,18.7-12.6c6.4-3.2,11.7-7.9,16.8-15.1
		c4.3-5.8,11.1-14.5,15.6-19.4c7.2-7.5,8.4-10.2,10.5-19.9c1.4-7.2,5.6-17.1,12.1-28.6c8.6-15.2,10-19.4,10.5-28.8
		c0.2-5.9,2.1-18.6,4.1-28.1c1.7-8.2,3.2-16.3,4.6-24c-0.4,0.1-0.8,0.2-1.2,0.3c-74.2,19.2-181.3,42.4-266.3,55.5
		c1.9,3.7,3.9,7.5,6,11.2C1068,1809.9,1074.6,1822.5,1079.3,1831.7z"/>
	<path class="st1" d="M1204.6,2249.6c-0.1,0-0.2,0-0.3,0c0,0,0,0,0,0C1204.4,2249.6,1204.5,2249.6,1204.6,2249.6z"/>
	<path class="st1" d="M976.3,1507.4c16.7-45.6-29.5-130.4,18-213.2c3.4-5.9,7.4-12,11.9-18c-0.8,0.6-1.7,1.2-2.4,1.7
		c-4.8,3.3-11.1,6.8-14.2,7.9c-3,1-10.8,5.5-17.2,9.8c-6.6,4.5-13,8.1-14.5,8.2c-1.4-0.1-10.3,4.1-19.8,8.9
		c-9.7,4.7-21.9,10.1-27.1,11.7c-5.3,1.6-13,5.4-16.9,8.5c-3.9,3.1-10.4,6.9-14.7,8.6c-20.2,7.9-30.2,12.8-37.7,18.3
		c-4.5,3.3-11.9,7.3-16.2,9c-20.2,7.9-30.2,12.8-37.8,18.2c-4.4,3.1-12.1,7.4-17.2,9.6c-5,2-10.8,5.5-13,7.6
		c-2.2,2.1-6.8,4.8-10.7,6c-10.3,3.3-15,7.2-20,16.2s-10.3,13.5-23.4,20.3c-8.6,4.5-16.6,12.3-26.3,25.9c-5.2,7.5-5.6,9.1-3.5,16.9
		c1.5,4.7,3.7,9.3,5.3,10.3c4.9,2.8,16.6-1.2,23.8-8.3c6.5-6.4,7.4-6.7,13.4-3.3c9.6,5.2,15.2,5.5,23.3,1.1
		c11.5-6.3,22.2-7.2,34.5-3.4c8.6,2.7,14.3,2.8,25.4,0.4l14.3-3l18.3,8.7c10.1,4.8,21.7,9.4,25.8,10.3c4.1,0.9,15,5.9,24.4,11.1
		c13.9,7.9,19.5,12.5,30.9,24.8c7.9,8.6,16,15.7,22.3,19.8C956.2,1538.1,971.6,1520.3,976.3,1507.4z"/>
	<path class="st1" d="M229.6,1564.1c12.3-9.4,19.1-20.1,21.6-33.9c1.5-8.6,2.4-10.2,9.1-16.1c5.5-5.1,12.2-15.1,27.6-42.3
		c15-26.5,22.4-37.8,28.2-43.4c7.1-6.6,8.3-8.6,10.6-18.7c2.4-10.2,3.5-12.2,10.9-19.2c10.3-10.1,19.3-26,21.5-38
		c0.9-5,4.6-14.5,8.2-20.9c3.7-6.6,8.2-17.1,10.1-23.8c7.6-27.1,9.6-32.3,18.9-48.7c6-10.6,10.3-20.7,11.3-26.4
		c1-6,5.5-16.2,12.4-28.3c10.3-18.1,13-24.7,19.1-47.4c1.5-5.7,7.6-19.8,13.6-31.7c6-11.8,12-25.8,13.3-31.1
		c6.9-25.1,10.5-32.7,34.2-72.4c50.2-83.6,64.7-105.7,76.6-116c6.1-5.2,14.9-14.3,19.3-20.5c4.6-6.1,12.3-16.2,17.3-22.8
		c4.9-6.4,11.2-13.7,13.8-15.9c2.8-2.3,11.1-15,19-28.9l14.1-24.9l0.1-18.1c0-10.2-2.4-28.2-5.4-40.3c-4.5-17.3-7.8-25.4-17.2-39.7
		c-17.1-26.1-23.6-30-73.2-44.3c-5.2-1.5-14.1-4.6-19.9-6.7c-9.9-3.9-56.5-8.6-60.9-6c-1.2,0.5-7.2,0-13.6-1.2
		c-12.6-2.5-37.5,2.7-60.4,12.4c-49.4,21.1-61.2,27-72.4,36.1c-5.2,4.1-13.1,10-17.7,12.9c-4.6,3-11,8.7-14.3,12.9
		c-3.3,4.2-8.3,10.3-11.1,13.5c-4.9,5.7-5,7.1-2.1,20.3c3.7,16.9,0.7,23.9-9.1,22.1c-8.9-1.7-12.1-10.2-10.8-29.5
		c0.9-12.3,2.6-19.1,6.5-26c5.1-9,26-31.9,40.4-44.5c11.3-9.8,44-30.4,55.5-35c20.6-8.2,71.5-23.5,76.6-23.1
		c2.7,0.3,11.3-0.8,18.8-2.4c7.4-1.6,21.7-2.5,31.7-1.8c14.2,0.5,20.7-0.3,29.6-4.5c6.5-2.9,13.1-5.2,15-4.8c2,0.4,12,5.3,22.2,11.1
		c11.3,6.4,22.9,11.5,29.4,13c7.4,1.8,19.3,7.3,40.9,19.5c27.1,15.3,31.3,18.5,40.6,28.5c5.6,6.3,13.1,13.9,16.7,17
		c14.7,12.4,21.8,33.1,24.3,70.1c1.5,20.9,0.8,30.6-3.7,53c-5.8,28.6-11.1,40.8-22.8,54c-3.6,3.8-15,16.2-25.4,27.4
		c-10.6,11.4-20.4,23.2-22.2,26.3c-1.8,3.1-8.6,10.6-15.3,16.4c-6.7,5.9-14.5,15-17.4,20.1c-2.9,5.1-8.8,12.6-13.1,16.7
		c-11.5,10.9-87.9,145.9-91.3,161.3c-1.3,5.8-4.3,14-6.7,18.2c-2.4,4.2-4.7,10.4-5.2,13.9c-0.3,3.5-3.7,13.4-7.5,21.8
		c-17.6,41-22.2,56.3-22.2,73.7c0,3.4-4.8,14.9-12.4,29.9c-10.2,19.8-13.9,29.6-20.2,53.5c-7.5,28.6-8.1,30.2-25.9,61.4
		c-11.2,19.8-18.8,35.3-19.7,39.8c-0.9,4.1-9.5,23.1-19.3,42.2c-24.8,49-37,75.6-38.1,83c-0.4,3.7-3.4,11.1-6.7,17
		c-3.3,5.9-6.8,15-7.7,20c-1.1,6.5-5.7,16.3-16.6,35.7c11.1-10.4,71.7,17.8,86.6,12.9c15.8-5.3,21.6-10,23.1-18.6
		c0.9-6.7-3.8-21.9-9.9-30.7c-2.3-3.7-4-10-3.8-14.2c0.4-9.7,7.3-16.7,21.1-21.9c12.5-4.5,25.2-12.5,28.1-17.7
		c1.3-2.4,0.9-10.6-1.1-19.4c-3.3-14.7-3.2-15.6,2.9-26.4c6.1-10.8,6.5-11.1,22-15.8c25.3-7.9,30.9-13.7,27.7-28.8
		c-2.4-12.7-2-18.3,2.8-26.7c4.1-7.3,12.5-14.9,14.9-13.5c0.7,0.4,7.1-0.6,14.3-2.3c11.7-2.8,13.4-4,17.6-11.5
		c2.6-4.6,5.2-11.3,6-15.2c2-10.7,7.3-14.7,28.5-20.1l19.7-5l7.5-13.2c8.5-15,15.7-21.3,26.8-23.9c9-2.2,17.4-7.3,20.4-12.6
		c4-7.1,17.2-13.7,29.9-15.2c8.7-0.9,15.4-3.3,21.6-7.8c16.6-12.3,18.5-13,29.7-14.1c8.1-1,15.2-3.7,26-10.9
		c9-5.7,19.2-10.4,25.9-11.6c5.9-1,17.6-5.5,26.1-9.9c8.2-4.3,18.1-8.1,21.7-8.5c15.2-1.3,27.2-4.9,35.6-10.5
		c6.7-4.6,11.6-6,20.2-5.7c11.9,0.7,21.1-2.8,24.7-9c3.5-6.2,11.9-10.4,30.4-15.4c9.6-2.5,22.2-6.8,27.7-9.7
		c5.7-2.8,17.1-7.2,25.5-10c30.9-10.3,45.1-16.5,59.7-26.1c9.6-6.4,20.4-11.4,30.9-14.1c20.6-5.2,29.9-10.1,39.3-20.7
		c4.1-4.7,10.9-10.7,15.2-13.6c6.9-4.5,9.8-8.7,25.3-36.2c16.7-29.4,19.4-35.6,26-59.6c1.7-5.6,6.4-17.6,11-27.1
		c4.6-9.7,8.9-22.5,9.9-29.4c0.9-6.7,3.4-21.3,5.1-32.1c1.9-12.7,2.4-30.7,1.1-48.9c-1-15.8-1.5-35.7-1.2-43.9
		c0.6-9.9-1.1-20.6-6.7-41.8c-1.9-1-3.8-2-5.7-2.8c-35.6-15.3-122.4-24.5-131.8,39.5c-9.4,64,44.7,83.4,65.1,137.2
		c20.4,53.8-9.2,153.4-30.9,161.1c-21.7,7.8-35-42.2-11.4-118.2c23.7-76-57.8-90.6-83.6-132.9c-25.8-42.3-46-73.4-21.2-167.3
		c2.8-10.5,4.5-20.9,5.5-31.2L985,701.5c-20.3,35.8-21.9,39.1-24.6,54.2c-2.2,11.6-5.3,20-11,30c-4.3,7.7-9,18.8-10.3,24.6
		c-1.3,5.8-4.5,14.4-7.2,19.1c-4.6,8-18.6,55.9-20.9,71c-0.7,3.7-0.3,9.5,0.5,12.8c0.8,3.3,1.9,11.2,2.6,17.6c0.5,6.3,2,20.4,3,31.4
		l2,20l-16.9,31c-22.3,41-26.2,44.6-65.4,58.4c-9,3.1-10.3,2.9-22.4-3c-14.9-7.5-21.6-16.8-19.1-26c2.5-9.2,7.7-9.4,20-0.8
		c13.7,9.9,17.1,9.9,36,0.4l15.2-7.6l11.9-21c11.4-20.1,12-21.7,11.6-32.3c-0.4-6,0.2-16.1,1.1-22.1c0.9-6.3-0.2-18.5-2.2-28.1
		c-7.6-34.3-8.3-57.8-1.7-69.5c1.6-2.7,3.4-10.6,3.9-17.6c0.6-6.7,3.5-21.2,6.4-32.1c2.9-11.1,5.8-23,6.4-26.6
		c1.5-10.3,7.9-26.7,20.3-52.5c6.2-13.1,11.9-26.6,12.2-30.1c0.7-3.7,7.4-17.8,17.3-35.2c15.7-27.8,16.8-29.2,32.8-43.5
		c5.1-4.6,10.2-8.9,15.2-12.7c-8.2-59-31.9-112.3-28.5-155c14.5-181.4,94.4-250.8,111-302.1c16.6-51.2,27.3-151,27.3-151.2
		C848.6,22.5,591.6,133.7,392.4,336.3C49.3,685.4-19.7,1201.5,183.2,1617.7C187,1597.9,216.4,1574.2,229.6,1564.1z"/>
	<path d="M411.5,1935.9c0,0,0,0.1,0,0.1C411.6,1936.1,411.6,1936,411.5,1935.9z"/>
	<path class="st5" d="M1042.9,1755.1c-2.6-8.2-7-19.7-9.8-25.4c-2.9-5.5-7-17.5-9.3-26.3c-4.2-16.1-12.3-35-21-48.1
		c-2.4-3.8-6.1-11.4-8.3-17c-2-5.5-5.6-11.9-8.2-14.1c-2.3-2.3-5.5-6.5-6.8-9.7c-1.3-3.2-9-15.7-16.9-27.7
		c-12.8-18.8-16.1-22.7-25.1-27.7c-0.7-0.4-1.4-0.8-2.2-1.3c-16.8,15.8-37,32.9-58.1,49.6l6.8,3.9l11.2,20.8
		c6.2,11.2,14,24.3,17.4,28.9c3.4,4.6,8.2,11.6,10.5,15.6c2.4,3.8,7.1,11.3,10.3,16.4c3.2,5,8.4,17.1,11.9,26.8
		c12.2,35.2,15.2,42.7,24.1,59.3c5.4,10.1,9.3,17.4,12.4,22.9c21.6-1.6,47.9-4.8,76.7-9.3
		C1052.2,1780.4,1047.1,1768.1,1042.9,1755.1z"/>
	<path class="st5" d="M1003.3,669.2l3.3-5.9l13.4-7.9c7.4-4,16.3-9.1,19.5-10.9c13.1-7.3,36.3-15,44.1-14.7
		c37.7,2,38.2,2.1,51.3,9.7c8.6,4.9,14.6,10,18.4,15.3c3.2,4.2,9.9,11.9,15.3,16.9c8.9,8.6,13.4,16.5,30.6,53.8
		c2.4,5.5,9.3,26.7,15.1,47.5c1.1,3.9,2,7.5,2.9,10.8c34.8,18.6,77.1,71.8,73.3,97.4c-3.1,21-7,47.9,0.7,65.5c0.3-2,0.7-4.1,1.1-6.4
		c2.2-13.3,3.4-27.3,3-31.4c-0.5-3.9-0.2-12,0.7-17.9c1-6,0.8-19.8-0.2-30.8c-1.1-10.8-1.5-25-1.3-31.4
		c0.6-13-23.9-106.3-31.6-121.3c-2.6-4.8-6.5-13.3-8.4-18.8c-2-5.5-7.2-13.7-11.4-18.3c-4.2-4.5-12.7-15.9-19-25.3l-11.5-17.2
		l-41.9-23.7c-37.9-21.4-43.4-24.1-54-25.8c-6.6-1.1-14.6-1-17.6-0.1c-3.3,1.1-10.9,1.8-17.4,1.3c-25.4-1-51.4,9.1-80.2,31.6
		C1004.1,630.1,1005.2,649.4,1003.3,669.2z"/>
	<path class="st5" d="M1006.2,1276.1c12.5-8.7,29.8-18.3,36.4-20.5c3.4-1,9.2-4.2,13-7.1c3.5-2.8,11.7-7.4,17.7-10
		c6.1-2.6,11.7-5.7,12.4-7c0.7-1.3,5.7-4.5,11.2-7.4c5.3-3,12.7-8,16.3-11.3c3.5-3.1,10.5-7.8,15.5-10.3c7.6-3.8,24-17.4,37.9-30.8
		C1107.6,1180.2,1041.6,1228.3,1006.2,1276.1z"/>
	<path class="st5" d="M1372.1,1697.6c-0.9-3.2-1.2-10.6-0.7-17.1c0.6-6.2,0.3-13.3-0.5-15.7c-1-2.5-1.5-9.3-1.3-15.2
		c0.2-5.9-0.1-15.5-1.2-21.4c-2.6-15.9-3.6-35.1-2.1-41.1c0.7-3,0.6-8.3-0.3-12.3c-0.7-3.8-1.9-12-2.3-18.2
		c-1-12.4-9.9-44.3-14.3-51.1c-1.6-2.3-6.2-7.4-10.3-11.2c-4.1-3.8-10.1-10.3-13.2-14.7c-3.2-4.2-7.8-9.7-10.3-12.1
		c-2.7-2.5-7-13.6-10.7-26.8c-7-26-6.1-31.5,7.8-44.4c6.6-6.2,9.2-9.8,9.1-12.7c-0.5-5.6-2.5-7.2-8.1-6.5c-4.6,0.5-6.5,2.9-17,21.5
		c-11.8,20.8-12,21.2-10.3,31.4c0.9,5.6,6.6,19.9,12.6,32c5.8,12,13.7,31.7,17.2,43.8c3.5,12.1,7.7,23.9,9.2,26.5
		c3.9,5.9,10,54.9,8.7,67.7c-0.7,5.4-0.4,13.5,0.4,18.1c1.8,9.2,0.9,30.4-1.5,42.4c-1.8,9.6-2.6,28.9-1.4,34.9
		c0.8,3.3-1.7,20.6-5.5,41.6c17.5-4.6,32.4-10.1,45-16.3c0.2-2.6,0.5-5.1,0.9-7C1373.1,1707.8,1373.3,1700.6,1372.1,1697.6z"/>
	<path class="st5" d="M953.5,667.5c-9.8,17.4-16.6,31.4-17.3,35.2c-0.3,3.5-6,16.9-12.2,30.1c-12.4,25.8-18.8,42.2-20.3,52.5
		c-0.6,3.5-3.4,15.4-6.4,26.6c-2.8,11-5.7,25.5-6.4,32.1c-0.5,6.9-2.4,14.8-3.9,17.6c-6.6,11.7-6,35.3,1.7,69.5
		c2,9.6,3.1,21.8,2.2,28.1c-1,6-1.6,16-1.1,22.1c0.5,10.7-0.2,12.2-11.6,32.3l-11.9,21l-15.2,7.6c-18.9,9.6-22.3,9.6-36-0.4
		c-12.3-8.6-17.4-8.4-20,0.8c-2.5,9.2,4.2,18.6,19.1,26c12.1,5.9,13.4,6.2,22.4,3c39.2-13.8,43.2-17.3,65.4-58.4l16.9-31l-2-20
		c-1-11-2.5-25.1-3-31.4c-0.7-6.4-1.8-14.3-2.6-17.6c-0.8-3.3-1.1-9.1-0.5-12.8c2.3-15.1,16.3-63,20.9-71c2.7-4.8,5.9-13.3,7.2-19.1
		c1.3-5.8,6-16.9,10.3-24.6c5.7-10.1,8.8-18.5,11-30c2.8-15.1,4.3-18.3,24.6-54.2l18.3-32.4c1.9-19.8,0.8-39.1-1.8-57.9
		c-5,3.9-10,8.1-15.2,12.7C970.3,638.4,969.3,639.7,953.5,667.5z"/>
	<path class="st5" d="M554.1,1726.1c9.4-16.6,29-43.5,32.7-45c4.9-1.8,27.3-21.7,30.2-26.9c1.2-2.2,5.7-5.4,10.3-7.5
		c4.5-2,12.2-7.1,17.3-11.4c13.7-11.3,20-15.3,32.6-19.2c6.2-2,15.7-7.3,20.8-11.6c7.7-6.3,16.1-9.7,45.3-18.1
		c25.7-7.4,39.4-10.3,48.2-9.7c7,0.4,17.4,0.9,23.4,0.9c10.1,0.1,12.2,1.1,39.9,17l22.5,12.7c21-16.7,41.3-33.7,58.1-49.6
		c-6.3-4.1-14.4-11.2-22.3-19.8c-11.4-12.3-17-16.9-30.9-24.8c-9.3-5.3-20.3-10.3-24.4-11.1c-4.1-0.9-15.7-5.5-25.8-10.3l-18.3-8.7
		l-14.3,3c-11,2.4-16.8,2.3-25.4-0.4c-12.3-3.8-23-2.9-34.5,3.4c-8,4.4-13.7,4.1-23.3-1.1c-6-3.4-6.9-3.2-13.4,3.3
		c-7.1,7.1-18.8,11.1-23.8,8.3c-1.6-0.9-3.9-5.6-5.3-10.3c-2.1-7.7-1.7-9.4,3.5-16.9c9.6-13.6,17.7-21.4,26.3-25.9
		c13.1-6.9,18.3-11.4,23.4-20.3s9.7-12.9,20-16.2c3.8-1.2,8.5-3.9,10.7-6c2.2-2.1,8-5.6,13-7.6c5.1-2.2,12.9-6.5,17.2-9.6
		c7.6-5.3,17.7-10.3,37.8-18.2c4.3-1.7,11.7-5.7,16.2-9c7.4-5.5,17.5-10.4,37.7-18.3c4.3-1.7,10.8-5.5,14.7-8.6
		c3.9-3.1,11.7-6.9,16.9-8.5c5.3-1.6,17.5-7,27.1-11.7c9.5-4.8,18.3-8.9,19.8-8.9c1.5-0.1,7.9-3.7,14.5-8.2
		c6.3-4.4,14.2-8.9,17.2-9.8c3.1-1.2,9.4-4.6,14.2-7.9c0.8-0.6,1.6-1.1,2.4-1.7c35.4-47.9,101.4-95.9,160.5-104.4
		c10.6-10.1,19.8-20.1,22.8-25.4c3.3-5.4,8.8-12.6,12.6-15.8c3.7-3.2,8-7.8,9.3-10c1.3-2.4,8.8-10.9,16.8-19
		c18.5-19,39.7-54.8,42.6-72.2c1.1-6.2,4.7-20.3,8-31.7c7.4-24.5,8.5-28.4,12.3-51c-7.7-17.6-3.8-44.5-0.7-65.5
		c3.8-25.6-38.5-78.8-73.3-97.4c5.6,21.2,7.3,31.9,6.7,41.8c-0.3,8.3,0.2,28.2,1.2,43.9c1.3,18.1,0.8,36.2-1.1,48.9
		c-1.8,10.8-4.2,25.4-5.1,32.1c-1,6.9-5.3,19.7-9.9,29.4c-4.6,9.5-9.3,21.5-11,27.1c-6.6,24-9.4,30.2-26,59.6
		c-15.5,27.4-18.4,31.6-25.3,36.2c-4.3,2.9-11.1,8.9-15.2,13.6c-9.4,10.6-18.7,15.5-39.3,20.7c-10.5,2.8-21.3,7.7-30.9,14.1
		c-14.6,9.6-28.8,15.8-59.7,26.1c-8.3,2.8-19.8,7.2-25.5,10c-5.5,2.9-18.1,7.2-27.7,9.7c-18.5,5-26.9,9.2-30.4,15.4
		c-3.5,6.2-12.7,9.7-24.7,9c-8.6-0.3-13.4,1.1-20.2,5.7c-8.5,5.6-20.4,9.2-35.6,10.5c-3.6,0.4-13.5,4.2-21.7,8.5
		c-8.5,4.4-20.2,8.8-26.1,9.9c-6.7,1.3-16.9,5.9-25.9,11.6c-10.8,7.2-17.9,9.9-26,10.9c-11.3,1.1-13.1,1.8-29.7,14.1
		c-6.2,4.5-12.9,7-21.6,7.8c-12.7,1.5-25.8,8.1-29.9,15.2c-3,5.3-11.5,10.4-20.4,12.6c-11.1,2.6-18.3,8.9-26.8,23.9l-7.5,13.2
		l-19.7,5c-21.2,5.4-26.6,9.4-28.5,20.1c-0.8,3.9-3.4,10.6-6,15.2c-4.2,7.5-5.9,8.7-17.6,11.5c-7.2,1.7-13.6,2.7-14.3,2.3
		c-2.4-1.3-10.8,6.2-14.9,13.5c-4.8,8.4-5.2,13.9-2.8,26.7c3.3,15.1-2.4,20.9-27.7,28.8c-15.5,4.8-15.9,5-22,15.8
		c-6.1,10.8-6.2,11.7-2.9,26.4c2,8.9,2.4,17.1,1.1,19.4c-2.9,5.1-15.6,13.1-28.1,17.7c-13.8,5.2-20.7,12.2-21.1,21.9
		c-0.2,4.2,1.5,10.5,3.8,14.2c6.1,8.8,10.8,24,9.9,30.7c-1.5,8.6-7.3,13.3-23.1,18.6c-14.9,4.9-75.5-23.3-86.6-12.9
		c-0.5,0.9-1,1.9-1.6,2.8c0.3-1.2,0.8-2.1,1.6-2.8c10.9-19.3,15.4-29.2,16.6-35.7c0.9-5,4.4-14.2,7.7-20c3.3-5.9,6.3-13.3,6.7-17
		c1-7.4,13.2-34,38.1-83c9.8-19.1,18.4-38.1,19.3-42.2c0.9-4.6,8.5-20.1,19.7-39.8c17.7-31.3,18.4-32.8,25.9-61.4
		c6.3-24,9.9-33.7,20.2-53.5c7.6-15,12.4-26.6,12.4-29.9c0-17.4,4.5-32.7,22.2-73.7c3.8-8.5,7.3-18.4,7.5-21.8
		c0.6-3.5,2.9-9.7,5.2-13.9c2.4-4.2,5.3-12.4,6.7-18.2c3.4-15.4,79.9-150.4,91.3-161.3c4.3-4.1,10.2-11.6,13.1-16.7
		c2.9-5.1,10.7-14.2,17.4-20.1c6.7-5.9,13.6-13.3,15.3-16.4c1.8-3.1,11.6-14.9,22.2-26.3c10.5-11.2,21.8-23.6,25.4-27.4
		c11.8-13.1,17-25.4,22.8-54c4.4-22.4,5.1-32.1,3.7-53c-2.5-36.9-9.6-57.6-24.3-70.1c-3.6-3-11.1-10.6-16.7-17
		c-9.3-10.1-13.5-13.2-40.6-28.5c-21.6-12.2-33.4-17.7-40.9-19.5c-6.4-1.5-18-6.6-29.4-13c-10.2-5.8-20.2-10.7-22.2-11.1
		c-2-0.4-8.6,1.9-15,4.8c-8.9,4.2-15.4,5-29.6,4.5c-10-0.6-24.3,0.3-31.7,1.8c-7.4,1.6-16,2.7-18.8,2.4c-5.1-0.4-56,14.9-76.6,23.1
		c-11.5,4.6-44.2,25.2-55.5,35C305,679.5,284,702.4,279,711.4c-3.9,6.9-5.6,13.7-6.5,26c-1.3,19.3,1.9,27.9,10.8,29.5
		c9.9,1.7,12.9-5.3,9.1-22.1c-2.9-13.2-2.8-14.6,2.1-20.3c2.8-3.2,7.7-9.4,11.1-13.5c3.3-4.2,9.7-9.9,14.3-12.9
		c4.6-3,12.5-8.9,17.7-12.9c11.2-9.1,23-15,72.4-36.1c22.9-9.7,47.8-14.9,60.4-12.4c6.3,1.2,12.3,1.7,13.6,1.2
		c4.4-2.6,51,2.1,60.9,6c5.8,2.1,14.7,5.2,19.9,6.7c49.6,14.3,56.1,18.2,73.2,44.3c9.3,14.2,12.7,22.4,17.2,39.7
		c3,12.1,5.4,30.1,5.4,40.3l-0.1,18.1l-14.1,24.9c-7.9,13.9-16.2,26.5-19,28.9c-2.7,2.1-9,9.4-13.8,15.9c-5,6.6-12.6,16.8-17.3,22.8
		c-4.5,6.2-13.2,15.2-19.3,20.5c-11.9,10.4-26.3,32.4-76.6,116c-23.7,39.7-27.3,47.3-34.2,72.4c-1.3,5.3-7.3,19.3-13.3,31.1
		c-6,11.8-12.1,26-13.6,31.7c-6.1,22.7-8.9,29.3-19.1,47.4c-6.8,12.1-11.4,22.3-12.4,28.3c-1,5.7-5.3,15.8-11.3,26.4
		c-9.3,16.5-11.3,21.6-18.9,48.7c-1.9,6.7-6.3,17.2-10.1,23.8c-3.6,6.4-7.3,15.9-8.2,20.9c-2.2,12-11.2,27.9-21.5,38
		c-7.3,7-8.5,9-10.9,19.2c-2.3,10-3.4,12.1-10.6,18.7c-5.8,5.6-13.2,16.9-28.2,43.4c-15.4,27.3-22.1,37.3-27.6,42.3
		c-6.7,5.9-7.6,7.5-9.1,16.1c-2.5,13.8-9.3,24.5-21.6,33.9c-13.2,10.1-42.7,33.8-46.5,53.6c54.6,112.1,128.9,216.9,222.9,309.3
		c2.2,2.1,4.4,4.3,6.6,6.4c13-22.8,130.5-166.5,129.7-170C540.8,1756.7,545.7,1740.9,554.1,1726.1z"/>
	<path class="st5" d="M1321.5,1760.9c-2,9.5-3.9,22.2-4.1,28.1c-0.5,9.4-1.9,13.6-10.5,28.8c-6.5,11.5-10.7,21.5-12.1,28.6
		c-2.1,9.7-3.4,12.3-10.5,19.9c-4.5,4.9-11.3,13.6-15.6,19.4c-5.1,7.3-10.4,12-16.8,15.1c-5.1,2.7-13.4,8.3-18.7,12.6
		c-19.6,16.7-56.1,18.5-74.8,4c-4.1-3-14.3-10.5-23.1-16.4c-11.8-8.1-17-13-21.2-20.2c-3.1-5.1-10.2-14.5-16.1-20.7
		c-5.6-6.3-14.3-19.2-18.9-28.6c-4.7-9.2-11.3-21.9-14.8-27.7c-2.1-3.8-4.1-7.5-6-11.2c-28.8,4.4-55.1,7.7-76.7,9.3
		c6,10.7,8.8,14.5,12.6,18.8c3,3.2,7.9,10.8,11,16.9c2.9,6,8.7,14.6,12.7,19.3c4.2,4.5,10.4,13.6,13.9,20.2c4.9,9.3,8.3,13.1,15,17
		c4.8,2.7,15,11.1,22.5,18.8c18.9,19.1,41.7,32.1,64,36.2c8.8,1.6,18.3,4.3,21.1,5.9c4.9,2.8,24.1,6.4,54.7,10.4
		c17.3,2.3,36.3-1,48.6-8.2c9.2-5.6,34.2-28,47.3-42.5c13.5-15.3,46.6-81.8,48.9-98.7c0.6-3.5,3-9.9,5.4-14.3
		c6-10.6,12.8-49.5,11.5-65c-0.3-4.6-0.3-10.7,0.1-16.1c-12.6,6.2-27.5,11.7-45,16.3C1324.7,1744.6,1323.2,1752.8,1321.5,1760.9z"/>
	<path d="M299.7,1642.9c0.5-1,1.1-1.9,1.6-2.8C300.5,1640.8,300,1641.8,299.7,1642.9z"/>
</g>
<path class="st6" d="M1844.9,1385.6c0,0-69.4-76.8-174.8-88l-61.2,59.7c0,0,72.2,74,174.8,88c12.6,1.6,28.1,0.3,43.8-14.9
	C1844.5,1413.7,1853.2,1394.1,1844.9,1385.6"/>
<path class="st7" d="M1348.7,894.1l-118.2,343.2l241.8,128.2l-49.6-429.7L1348.7,894.1z"/>
<ellipse transform="matrix(0.7158 -0.6983 0.6983 0.7158 -464.4574 1520.6782)" class="st8" cx="1636" cy="1330.9" rx="49.7" ry="19.9"/>
<path class="st9" d="M2029.3,1378"/>
<path class="st10" d="M2029.3,1378l-218.7,55c0,0-416.2-241.5-570-319.3c-155.2-76.5-156.2,2.3-320.7-1.2
	c-187-6.5-60.7,134.3,550.7,404.9c54.6,24.6,139.5-19.4,243.3,4.4c110.8,25.3,187.7,67,187.7,67"/>
<g>
	<path class="st7" d="M2151,1431.6"/>
	<path class="st7" d="M1210.7,1362.3l430.8,652.4l98.3,18.1l-208.5-541.4L1210.7,1362.3z"/>
</g>
<path class="st8" d="M1125.6,1081.3c-33.8-0.4-62,10.5-100.1,19.9c-3.2,28.1,7.7,56.4,30,79.1c40.3,41.3,103.6,43.5,143.4,4.6
	c0,0-32-32.8-43.1-44.1C1136.3,1123.6,1128.1,1101,1125.6,1081.3"/>
<path class="st10" d="M1019.4,1245.9l-16.7-11.5c84.2-98.8,156.3-121.9,159.1-121.8l-3.1,25.3l1.6-12.6l-1.6,12.6
	C1157.2,1136.5,1093.7,1156.8,1019.4,1245.9"/>
<g>
	
		<ellipse transform="matrix(0.7158 -0.6983 0.6983 0.7158 -531.2199 1272.3071)" class="st8" cx="1297.4" cy="1288.8" rx="37.8" ry="19.9"/>
	
		<ellipse transform="matrix(0.7158 -0.6983 0.6983 0.7158 -537.9291 1336.467)" class="st8" cx="1372.9" cy="1329.1" rx="37.8" ry="19.9"/>
	
		<ellipse transform="matrix(0.7158 -0.6983 0.6983 0.7158 -544.6382 1400.627)" class="st8" cx="1448.4" cy="1369.4" rx="37.8" ry="19.9"/>
</g>
<path class="st6" d="M1873.7,1557.6c0,0-68-78.2-181.9-81l-71.2,69.5c0,0,72.2,74,181.9,81c12.6,1.6,29.6-1,49.5-20.5
	S1882.1,1566.1,1873.7,1557.6"/>
<ellipse transform="matrix(0.7158 -0.6983 0.6983 0.7158 -585.9868 1585.4883)" class="st8" cx="1654.8" cy="1512.6" rx="49.7" ry="19.9"/>
<g>
	<path class="st0" d="M2231.2,1724.9c-152.6,34.5-285.1-41.8-285.1-41.8l-74.3,181.9l-256.2-460.7l497.3-156.4l-68.2,171.3
		c0-0.1,147.6,56.4,234.5,4.6"/>
</g>
<g>
	<g>
		<path class="st0" d="M349.2,382.8c-0.1,0.1-442.9-358.7-56.5,466.1c0,0-385.3-532.9-271.7-730.8c128-172.2,524.8,87.7,524.8,87.7"
			/>
	</g>
</g>
<image style="display:none;overflow:visible;" width="4128" height="3096" xlink:href="20201126_004115.jpg"  transform="matrix(1 0 0 1 -976.1816 -529.8334)">
</image>
</svg>
